<mxfile host="app.diagrams.net" modified="2024-06-11T09:36:33.559Z" agent="Mozilla/5.0 (X11; Linux x86_64) AppleWebKit/537.36 (KHTML, like Gecko) Chrome/125.0.0.0 Safari/537.36" etag="1C6AEUk4gGZ1ar5Fl5mG" version="24.5.2" type="device" pages="2">
  <diagram name="Page-1" id="bKW7A4X7QLEsuqicn_LY">
    <mxGraphModel dx="6007" dy="1264" grid="1" gridSize="10" guides="1" tooltips="1" connect="1" arrows="1" fold="1" page="1" pageScale="1" pageWidth="850" pageHeight="1100" math="0" shadow="0">
      <root>
        <mxCell id="0" />
        <mxCell id="1" parent="0" />
        <UserObject label="" plantUmlData="{&#xa;  &quot;data&quot;: &quot;@startuml\ntitle HR Management System Component Diagram\n\npackage \&quot;HR Management System\&quot; {\n    \n    [User Interface] --&gt; [Account Management] : Access\n    [User Interface] --&gt; [Employee Management] : Access\n    [User Interface] --&gt; [Performance Evaluation] : Access\n    [User Interface] --&gt; [Training Management] : Access\n    [User Interface] --&gt; [Leave Management] : Access\n    [User Interface] --&gt; [Payroll Management] : Access\n    [User Interface] --&gt; [Compliance and Reporting] : Access\n    [User Interface] --&gt; [Payment Details] : Access\n    \n    [Account Management] --&gt; [Database] : Store/Retrieve Data\n    [Employee Management] --&gt; [Database] : Store/Retrieve Data\n    [Performance Evaluation] --&gt; [Database] : Store/Retrieve Data\n    [Training Management] --&gt; [Database] : Store/Retrieve Data\n    [Leave Management] --&gt; [Database] : Store/Retrieve Data\n    [Payroll Management] --&gt; [Database] : Store/Retrieve Data\n    [Compliance and Reporting] --&gt; [Database] : Store/Retrieve Data\n    [Payment Details] --&gt; [Database] : Store/Retrieve Data\n\n    [Account Management] --&gt; [Email Service] : Send Notifications\n    [Leave Management] --&gt; [Email Service] : Send Notifications\n    [Payroll Management] --&gt; [Payment Gateway] : Process Payments\n}\n\n@enduml\n&quot;,&#xa;  &quot;format&quot;: &quot;svg&quot;&#xa;}" id="TXEyf2R9NXxmNjn-UpMO-43">
          <mxCell style="shape=image;noLabel=1;verticalAlign=top;aspect=fixed;imageAspect=0;image=data:image/svg+xml,PD94bWwgdmVyc2lvbj0iMS4wIiBlbmNvZGluZz0idXMtYXNjaWkiIHN0YW5kYWxvbmU9Im5vIj8+PHN2ZyB4bWxucz0iaHR0cDovL3d3dy53My5vcmcvMjAwMC9zdmciIHhtbG5zOnhsaW5rPSJodHRwOi8vd3d3LnczLm9yZy8xOTk5L3hsaW5rIiBjb250ZW50U3R5bGVUeXBlPSJ0ZXh0L2NzcyIgaGVpZ2h0PSIzODJweCIgcHJlc2VydmVBc3BlY3RSYXRpbz0ibm9uZSIgc3R5bGU9IndpZHRoOjE4ODRweDtoZWlnaHQ6MzgycHg7YmFja2dyb3VuZDojRkZGRkZGOyIgdmVyc2lvbj0iMS4xIiB2aWV3Qm94PSIwIDAgMTg4NCAzODIiIHdpZHRoPSIxODg0cHgiIHpvb21BbmRQYW49Im1hZ25pZnkiPjxkZWZzLz48Zz48dGV4dCBmaWxsPSIjMDAwMDAwIiBmb250LWZhbWlseT0ic2Fucy1zZXJpZiIgZm9udC1zaXplPSIxNCIgZm9udC13ZWlnaHQ9ImJvbGQiIGxlbmd0aEFkanVzdD0ic3BhY2luZyIgdGV4dExlbmd0aD0iMjcwIiB4PSI4MDAiIHk9IjIzLjIzNDQiPkhSIE1hbmFnZW1lbnQgU3lzdGVtIENvbXBvbmVudCBEaWFncmFtPC90ZXh0PjwhLS1jbHVzdGVyIEhSIE1hbmFnZW1lbnQgU3lzdGVtLS0+PGcgaWQ9ImNsdXN0ZXJfSFIgTWFuYWdlbWVudCBTeXN0ZW0iPjxwYXRoIGQ9Ik04LjUsNDEuOTg0NCBMMTUxLjUsNDEuOTg0NCBBMy43NSwzLjc1IDAgMCAxIDE1NCw0NC40ODQ0IEwxNjEsNjIuOTY4OCBMMTg3NC41LDYyLjk2ODggQTIuNSwyLjUgMCAwIDEgMTg3Nyw2NS40Njg4IEwxODc3LDM3My40ODQ0IEEyLjUsMi41IDAgMCAxIDE4NzQuNSwzNzUuOTg0NCBMOC41LDM3NS45ODQ0IEEyLjUsMi41IDAgMCAxIDYsMzczLjQ4NDQgTDYsNDQuNDg0NCBBMi41LDIuNSAwIDAgMSA4LjUsNDEuOTg0NCAiIGZpbGw9Im5vbmUiIHN0eWxlPSJzdHJva2U6IzAwMDAwMDtzdHJva2Utd2lkdGg6MS41OyIvPjxsaW5lIHN0eWxlPSJzdHJva2U6IzAwMDAwMDtzdHJva2Utd2lkdGg6MS41OyIgeDE9IjYiIHgyPSIxNjEiIHkxPSI2Mi45Njg4IiB5Mj0iNjIuOTY4OCIvPjx0ZXh0IGZpbGw9IiMwMDAwMDAiIGZvbnQtZmFtaWx5PSJzYW5zLXNlcmlmIiBmb250LXNpemU9IjE0IiBmb250LXdlaWdodD0iYm9sZCIgbGVuZ3RoQWRqdXN0PSJzcGFjaW5nIiB0ZXh0TGVuZ3RoPSIxNDIiIHg9IjEwIiB5PSI1Ny4yMTg4Ij5IUiBNYW5hZ2VtZW50IFN5c3RlbTwvdGV4dD48L2c+PCEtLWVudGl0eSBVc2VyIEludGVyZmFjZS0tPjxnIGlkPSJlbGVtX1VzZXIgSW50ZXJmYWNlIj48cmVjdCBmaWxsPSIjRjFGMUYxIiBoZWlnaHQ9IjQ0Ljk4NDQiIHJ4PSIyLjUiIHJ5PSIyLjUiIHN0eWxlPSJzdHJva2U6IzE4MTgxODtzdHJva2Utd2lkdGg6MC41OyIgd2lkdGg9IjEzOCIgeD0iOTA0IiB5PSI3NC45ODQ0Ii8+PHJlY3QgZmlsbD0iI0YxRjFGMSIgaGVpZ2h0PSIxMCIgc3R5bGU9InN0cm9rZTojMTgxODE4O3N0cm9rZS13aWR0aDowLjU7IiB3aWR0aD0iMTUiIHg9IjEwMjIiIHk9Ijc5Ljk4NDQiLz48cmVjdCBmaWxsPSIjRjFGMUYxIiBoZWlnaHQ9IjIiIHN0eWxlPSJzdHJva2U6IzE4MTgxODtzdHJva2Utd2lkdGg6MC41OyIgd2lkdGg9IjQiIHg9IjEwMjAiIHk9IjgxLjk4NDQiLz48cmVjdCBmaWxsPSIjRjFGMUYxIiBoZWlnaHQ9IjIiIHN0eWxlPSJzdHJva2U6IzE4MTgxODtzdHJva2Utd2lkdGg6MC41OyIgd2lkdGg9IjQiIHg9IjEwMjAiIHk9Ijg1Ljk4NDQiLz48dGV4dCBmaWxsPSIjMDAwMDAwIiBmb250LWZhbWlseT0ic2Fucy1zZXJpZiIgZm9udC1zaXplPSIxNCIgbGVuZ3RoQWRqdXN0PSJzcGFjaW5nIiB0ZXh0TGVuZ3RoPSI5OCIgeD0iOTE5IiB5PSIxMDguMjE4OCI+VXNlciBJbnRlcmZhY2U8L3RleHQ+PC9nPjwhLS1lbnRpdHkgQWNjb3VudCBNYW5hZ2VtZW50LS0+PGcgaWQ9ImVsZW1fQWNjb3VudCBNYW5hZ2VtZW50Ij48cmVjdCBmaWxsPSIjRjFGMUYxIiBoZWlnaHQ9IjQ0Ljk4NDQiIHJ4PSIyLjUiIHJ5PSIyLjUiIHN0eWxlPSJzdHJva2U6IzE4MTgxODtzdHJva2Utd2lkdGg6MC41OyIgd2lkdGg9IjE2NyIgeD0iMTM1LjUiIHk9IjE5NC45ODQ0Ii8+PHJlY3QgZmlsbD0iI0YxRjFGMSIgaGVpZ2h0PSIxMCIgc3R5bGU9InN0cm9rZTojMTgxODE4O3N0cm9rZS13aWR0aDowLjU7IiB3aWR0aD0iMTUiIHg9IjI4Mi41IiB5PSIxOTkuOTg0NCIvPjxyZWN0IGZpbGw9IiNGMUYxRjEiIGhlaWdodD0iMiIgc3R5bGU9InN0cm9rZTojMTgxODE4O3N0cm9rZS13aWR0aDowLjU7IiB3aWR0aD0iNCIgeD0iMjgwLjUiIHk9IjIwMS45ODQ0Ii8+PHJlY3QgZmlsbD0iI0YxRjFGMSIgaGVpZ2h0PSIyIiBzdHlsZT0ic3Ryb2tlOiMxODE4MTg7c3Ryb2tlLXdpZHRoOjAuNTsiIHdpZHRoPSI0IiB4PSIyODAuNSIgeT0iMjA1Ljk4NDQiLz48dGV4dCBmaWxsPSIjMDAwMDAwIiBmb250LWZhbWlseT0ic2Fucy1zZXJpZiIgZm9udC1zaXplPSIxNCIgbGVuZ3RoQWRqdXN0PSJzcGFjaW5nIiB0ZXh0TGVuZ3RoPSIxMjciIHg9IjE1MC41IiB5PSIyMjguMjE4OCI+QWNjb3VudCBNYW5hZ2VtZW50PC90ZXh0PjwvZz48IS0tZW50aXR5IEVtcGxveWVlIE1hbmFnZW1lbnQtLT48ZyBpZD0iZWxlbV9FbXBsb3llZSBNYW5hZ2VtZW50Ij48cmVjdCBmaWxsPSIjRjFGMUYxIiBoZWlnaHQ9IjQ0Ljk4NDQiIHJ4PSIyLjUiIHJ5PSIyLjUiIHN0eWxlPSJzdHJva2U6IzE4MTgxODtzdHJva2Utd2lkdGg6MC41OyIgd2lkdGg9IjE3NSIgeD0iMTYzNi41IiB5PSIxOTQuOTg0NCIvPjxyZWN0IGZpbGw9IiNGMUYxRjEiIGhlaWdodD0iMTAiIHN0eWxlPSJzdHJva2U6IzE4MTgxODtzdHJva2Utd2lkdGg6MC41OyIgd2lkdGg9IjE1IiB4PSIxNzkxLjUiIHk9IjE5OS45ODQ0Ii8+PHJlY3QgZmlsbD0iI0YxRjFGMSIgaGVpZ2h0PSIyIiBzdHlsZT0ic3Ryb2tlOiMxODE4MTg7c3Ryb2tlLXdpZHRoOjAuNTsiIHdpZHRoPSI0IiB4PSIxNzg5LjUiIHk9IjIwMS45ODQ0Ii8+PHJlY3QgZmlsbD0iI0YxRjFGMSIgaGVpZ2h0PSIyIiBzdHlsZT0ic3Ryb2tlOiMxODE4MTg7c3Ryb2tlLXdpZHRoOjAuNTsiIHdpZHRoPSI0IiB4PSIxNzg5LjUiIHk9IjIwNS45ODQ0Ii8+PHRleHQgZmlsbD0iIzAwMDAwMCIgZm9udC1mYW1pbHk9InNhbnMtc2VyaWYiIGZvbnQtc2l6ZT0iMTQiIGxlbmd0aEFkanVzdD0ic3BhY2luZyIgdGV4dExlbmd0aD0iMTM1IiB4PSIxNjUxLjUiIHk9IjIyOC4yMTg4Ij5FbXBsb3llZSBNYW5hZ2VtZW50PC90ZXh0PjwvZz48IS0tZW50aXR5IFBlcmZvcm1hbmNlIEV2YWx1YXRpb24tLT48ZyBpZD0iZWxlbV9QZXJmb3JtYW5jZSBFdmFsdWF0aW9uIj48cmVjdCBmaWxsPSIjRjFGMUYxIiBoZWlnaHQ9IjQ0Ljk4NDQiIHJ4PSIyLjUiIHJ5PSIyLjUiIHN0eWxlPSJzdHJva2U6IzE4MTgxODtzdHJva2Utd2lkdGg6MC41OyIgd2lkdGg9IjE5NSIgeD0iNTU4LjUiIHk9IjE5NC45ODQ0Ii8+PHJlY3QgZmlsbD0iI0YxRjFGMSIgaGVpZ2h0PSIxMCIgc3R5bGU9InN0cm9rZTojMTgxODE4O3N0cm9rZS13aWR0aDowLjU7IiB3aWR0aD0iMTUiIHg9IjczMy41IiB5PSIxOTkuOTg0NCIvPjxyZWN0IGZpbGw9IiNGMUYxRjEiIGhlaWdodD0iMiIgc3R5bGU9InN0cm9rZTojMTgxODE4O3N0cm9rZS13aWR0aDowLjU7IiB3aWR0aD0iNCIgeD0iNzMxLjUiIHk9IjIwMS45ODQ0Ii8+PHJlY3QgZmlsbD0iI0YxRjFGMSIgaGVpZ2h0PSIyIiBzdHlsZT0ic3Ryb2tlOiMxODE4MTg7c3Ryb2tlLXdpZHRoOjAuNTsiIHdpZHRoPSI0IiB4PSI3MzEuNSIgeT0iMjA1Ljk4NDQiLz48dGV4dCBmaWxsPSIjMDAwMDAwIiBmb250LWZhbWlseT0ic2Fucy1zZXJpZiIgZm9udC1zaXplPSIxNCIgbGVuZ3RoQWRqdXN0PSJzcGFjaW5nIiB0ZXh0TGVuZ3RoPSIxNTUiIHg9IjU3My41IiB5PSIyMjguMjE4OCI+UGVyZm9ybWFuY2UgRXZhbHVhdGlvbjwvdGV4dD48L2c+PCEtLWVudGl0eSBUcmFpbmluZyBNYW5hZ2VtZW50LS0+PGcgaWQ9ImVsZW1fVHJhaW5pbmcgTWFuYWdlbWVudCI+PHJlY3QgZmlsbD0iI0YxRjFGMSIgaGVpZ2h0PSI0NC45ODQ0IiByeD0iMi41IiByeT0iMi41IiBzdHlsZT0ic3Ryb2tlOiMxODE4MTg7c3Ryb2tlLXdpZHRoOjAuNTsiIHdpZHRoPSIxNzQiIHg9Ijc4OSIgeT0iMTk0Ljk4NDQiLz48cmVjdCBmaWxsPSIjRjFGMUYxIiBoZWlnaHQ9IjEwIiBzdHlsZT0ic3Ryb2tlOiMxODE4MTg7c3Ryb2tlLXdpZHRoOjAuNTsiIHdpZHRoPSIxNSIgeD0iOTQzIiB5PSIxOTkuOTg0NCIvPjxyZWN0IGZpbGw9IiNGMUYxRjEiIGhlaWdodD0iMiIgc3R5bGU9InN0cm9rZTojMTgxODE4O3N0cm9rZS13aWR0aDowLjU7IiB3aWR0aD0iNCIgeD0iOTQxIiB5PSIyMDEuOTg0NCIvPjxyZWN0IGZpbGw9IiNGMUYxRjEiIGhlaWdodD0iMiIgc3R5bGU9InN0cm9rZTojMTgxODE4O3N0cm9rZS13aWR0aDowLjU7IiB3aWR0aD0iNCIgeD0iOTQxIiB5PSIyMDUuOTg0NCIvPjx0ZXh0IGZpbGw9IiMwMDAwMDAiIGZvbnQtZmFtaWx5PSJzYW5zLXNlcmlmIiBmb250LXNpemU9IjE0IiBsZW5ndGhBZGp1c3Q9InNwYWNpbmciIHRleHRMZW5ndGg9IjEzNCIgeD0iODA0IiB5PSIyMjguMjE4OCI+VHJhaW5pbmcgTWFuYWdlbWVudDwvdGV4dD48L2c+PCEtLWVudGl0eSBMZWF2ZSBNYW5hZ2VtZW50LS0+PGcgaWQ9ImVsZW1fTGVhdmUgTWFuYWdlbWVudCI+PHJlY3QgZmlsbD0iI0YxRjFGMSIgaGVpZ2h0PSI0NC45ODQ0IiByeD0iMi41IiByeT0iMi41IiBzdHlsZT0ic3Ryb2tlOiMxODE4MTg7c3Ryb2tlLXdpZHRoOjAuNTsiIHdpZHRoPSIxNTMiIHg9IjM3MC41IiB5PSIxOTQuOTg0NCIvPjxyZWN0IGZpbGw9IiNGMUYxRjEiIGhlaWdodD0iMTAiIHN0eWxlPSJzdHJva2U6IzE4MTgxODtzdHJva2Utd2lkdGg6MC41OyIgd2lkdGg9IjE1IiB4PSI1MDMuNSIgeT0iMTk5Ljk4NDQiLz48cmVjdCBmaWxsPSIjRjFGMUYxIiBoZWlnaHQ9IjIiIHN0eWxlPSJzdHJva2U6IzE4MTgxODtzdHJva2Utd2lkdGg6MC41OyIgd2lkdGg9IjQiIHg9IjUwMS41IiB5PSIyMDEuOTg0NCIvPjxyZWN0IGZpbGw9IiNGMUYxRjEiIGhlaWdodD0iMiIgc3R5bGU9InN0cm9rZTojMTgxODE4O3N0cm9rZS13aWR0aDowLjU7IiB3aWR0aD0iNCIgeD0iNTAxLjUiIHk9IjIwNS45ODQ0Ii8+PHRleHQgZmlsbD0iIzAwMDAwMCIgZm9udC1mYW1pbHk9InNhbnMtc2VyaWYiIGZvbnQtc2l6ZT0iMTQiIGxlbmd0aEFkanVzdD0ic3BhY2luZyIgdGV4dExlbmd0aD0iMTEzIiB4PSIzODUuNSIgeT0iMjI4LjIxODgiPkxlYXZlIE1hbmFnZW1lbnQ8L3RleHQ+PC9nPjwhLS1lbnRpdHkgUGF5cm9sbCBNYW5hZ2VtZW50LS0+PGcgaWQ9ImVsZW1fUGF5cm9sbCBNYW5hZ2VtZW50Ij48cmVjdCBmaWxsPSIjRjFGMUYxIiBoZWlnaHQ9IjQ0Ljk4NDQiIHJ4PSIyLjUiIHJ5PSIyLjUiIHN0eWxlPSJzdHJva2U6IzE4MTgxODtzdHJva2Utd2lkdGg6MC41OyIgd2lkdGg9IjE2NyIgeD0iMTQyMy41IiB5PSIxOTQuOTg0NCIvPjxyZWN0IGZpbGw9IiNGMUYxRjEiIGhlaWdodD0iMTAiIHN0eWxlPSJzdHJva2U6IzE4MTgxODtzdHJva2Utd2lkdGg6MC41OyIgd2lkdGg9IjE1IiB4PSIxNTcwLjUiIHk9IjE5OS45ODQ0Ii8+PHJlY3QgZmlsbD0iI0YxRjFGMSIgaGVpZ2h0PSIyIiBzdHlsZT0ic3Ryb2tlOiMxODE4MTg7c3Ryb2tlLXdpZHRoOjAuNTsiIHdpZHRoPSI0IiB4PSIxNTY4LjUiIHk9IjIwMS45ODQ0Ii8+PHJlY3QgZmlsbD0iI0YxRjFGMSIgaGVpZ2h0PSIyIiBzdHlsZT0ic3Ryb2tlOiMxODE4MTg7c3Ryb2tlLXdpZHRoOjAuNTsiIHdpZHRoPSI0IiB4PSIxNTY4LjUiIHk9IjIwNS45ODQ0Ii8+PHRleHQgZmlsbD0iIzAwMDAwMCIgZm9udC1mYW1pbHk9InNhbnMtc2VyaWYiIGZvbnQtc2l6ZT0iMTQiIGxlbmd0aEFkanVzdD0ic3BhY2luZyIgdGV4dExlbmd0aD0iMTI3IiB4PSIxNDM4LjUiIHk9IjIyOC4yMTg4Ij5QYXlyb2xsIE1hbmFnZW1lbnQ8L3RleHQ+PC9nPjwhLS1lbnRpdHkgQ29tcGxpYW5jZSBhbmQgUmVwb3J0aW5nLS0+PGcgaWQ9ImVsZW1fQ29tcGxpYW5jZSBhbmQgUmVwb3J0aW5nIj48cmVjdCBmaWxsPSIjRjFGMUYxIiBoZWlnaHQ9IjQ0Ljk4NDQiIHJ4PSIyLjUiIHJ5PSIyLjUiIHN0eWxlPSJzdHJva2U6IzE4MTgxODtzdHJva2Utd2lkdGg6MC41OyIgd2lkdGg9IjIwOSIgeD0iMTE3OS41IiB5PSIxOTQuOTg0NCIvPjxyZWN0IGZpbGw9IiNGMUYxRjEiIGhlaWdodD0iMTAiIHN0eWxlPSJzdHJva2U6IzE4MTgxODtzdHJva2Utd2lkdGg6MC41OyIgd2lkdGg9IjE1IiB4PSIxMzY4LjUiIHk9IjE5OS45ODQ0Ii8+PHJlY3QgZmlsbD0iI0YxRjFGMSIgaGVpZ2h0PSIyIiBzdHlsZT0ic3Ryb2tlOiMxODE4MTg7c3Ryb2tlLXdpZHRoOjAuNTsiIHdpZHRoPSI0IiB4PSIxMzY2LjUiIHk9IjIwMS45ODQ0Ii8+PHJlY3QgZmlsbD0iI0YxRjFGMSIgaGVpZ2h0PSIyIiBzdHlsZT0ic3Ryb2tlOiMxODE4MTg7c3Ryb2tlLXdpZHRoOjAuNTsiIHdpZHRoPSI0IiB4PSIxMzY2LjUiIHk9IjIwNS45ODQ0Ii8+PHRleHQgZmlsbD0iIzAwMDAwMCIgZm9udC1mYW1pbHk9InNhbnMtc2VyaWYiIGZvbnQtc2l6ZT0iMTQiIGxlbmd0aEFkanVzdD0ic3BhY2luZyIgdGV4dExlbmd0aD0iMTY5IiB4PSIxMTk0LjUiIHk9IjIyOC4yMTg4Ij5Db21wbGlhbmNlIGFuZCBSZXBvcnRpbmc8L3RleHQ+PC9nPjwhLS1lbnRpdHkgUGF5bWVudCBEZXRhaWxzLS0+PGcgaWQ9ImVsZW1fUGF5bWVudCBEZXRhaWxzIj48cmVjdCBmaWxsPSIjRjFGMUYxIiBoZWlnaHQ9IjQ0Ljk4NDQiIHJ4PSIyLjUiIHJ5PSIyLjUiIHN0eWxlPSJzdHJva2U6IzE4MTgxODtzdHJva2Utd2lkdGg6MC41OyIgd2lkdGg9IjE0NiIgeD0iOTk4IiB5PSIxOTQuOTg0NCIvPjxyZWN0IGZpbGw9IiNGMUYxRjEiIGhlaWdodD0iMTAiIHN0eWxlPSJzdHJva2U6IzE4MTgxODtzdHJva2Utd2lkdGg6MC41OyIgd2lkdGg9IjE1IiB4PSIxMTI0IiB5PSIxOTkuOTg0NCIvPjxyZWN0IGZpbGw9IiNGMUYxRjEiIGhlaWdodD0iMiIgc3R5bGU9InN0cm9rZTojMTgxODE4O3N0cm9rZS13aWR0aDowLjU7IiB3aWR0aD0iNCIgeD0iMTEyMiIgeT0iMjAxLjk4NDQiLz48cmVjdCBmaWxsPSIjRjFGMUYxIiBoZWlnaHQ9IjIiIHN0eWxlPSJzdHJva2U6IzE4MTgxODtzdHJva2Utd2lkdGg6MC41OyIgd2lkdGg9IjQiIHg9IjExMjIiIHk9IjIwNS45ODQ0Ii8+PHRleHQgZmlsbD0iIzAwMDAwMCIgZm9udC1mYW1pbHk9InNhbnMtc2VyaWYiIGZvbnQtc2l6ZT0iMTQiIGxlbmd0aEFkanVzdD0ic3BhY2luZyIgdGV4dExlbmd0aD0iMTA2IiB4PSIxMDEzIiB5PSIyMjguMjE4OCI+UGF5bWVudCBEZXRhaWxzPC90ZXh0PjwvZz48IS0tZW50aXR5IERhdGFiYXNlLS0+PGcgaWQ9ImVsZW1fRGF0YWJhc2UiPjxyZWN0IGZpbGw9IiNGMUYxRjEiIGhlaWdodD0iNDQuOTg0NCIgcng9IjIuNSIgcnk9IjIuNSIgc3R5bGU9InN0cm9rZTojMTgxODE4O3N0cm9rZS13aWR0aDowLjU7IiB3aWR0aD0iOTYiIHg9IjkzMSIgeT0iMzE0Ljk4NDQiLz48cmVjdCBmaWxsPSIjRjFGMUYxIiBoZWlnaHQ9IjEwIiBzdHlsZT0ic3Ryb2tlOiMxODE4MTg7c3Ryb2tlLXdpZHRoOjAuNTsiIHdpZHRoPSIxNSIgeD0iMTAwNyIgeT0iMzE5Ljk4NDQiLz48cmVjdCBmaWxsPSIjRjFGMUYxIiBoZWlnaHQ9IjIiIHN0eWxlPSJzdHJva2U6IzE4MTgxODtzdHJva2Utd2lkdGg6MC41OyIgd2lkdGg9IjQiIHg9IjEwMDUiIHk9IjMyMS45ODQ0Ii8+PHJlY3QgZmlsbD0iI0YxRjFGMSIgaGVpZ2h0PSIyIiBzdHlsZT0ic3Ryb2tlOiMxODE4MTg7c3Ryb2tlLXdpZHRoOjAuNTsiIHdpZHRoPSI0IiB4PSIxMDA1IiB5PSIzMjUuOTg0NCIvPjx0ZXh0IGZpbGw9IiMwMDAwMDAiIGZvbnQtZmFtaWx5PSJzYW5zLXNlcmlmIiBmb250LXNpemU9IjE0IiBsZW5ndGhBZGp1c3Q9InNwYWNpbmciIHRleHRMZW5ndGg9IjU2IiB4PSI5NDYiIHk9IjM0OC4yMTg4Ij5EYXRhYmFzZTwvdGV4dD48L2c+PCEtLWVudGl0eSBFbWFpbCBTZXJ2aWNlLS0+PGcgaWQ9ImVsZW1fRW1haWwgU2VydmljZSI+PHJlY3QgZmlsbD0iI0YxRjFGMSIgaGVpZ2h0PSI0NC45ODQ0IiByeD0iMi41IiByeT0iMi41IiBzdHlsZT0ic3Ryb2tlOiMxODE4MTg7c3Ryb2tlLXdpZHRoOjAuNTsiIHdpZHRoPSIxMzIiIHg9IjE3MyIgeT0iMzE0Ljk4NDQiLz48cmVjdCBmaWxsPSIjRjFGMUYxIiBoZWlnaHQ9IjEwIiBzdHlsZT0ic3Ryb2tlOiMxODE4MTg7c3Ryb2tlLXdpZHRoOjAuNTsiIHdpZHRoPSIxNSIgeD0iMjg1IiB5PSIzMTkuOTg0NCIvPjxyZWN0IGZpbGw9IiNGMUYxRjEiIGhlaWdodD0iMiIgc3R5bGU9InN0cm9rZTojMTgxODE4O3N0cm9rZS13aWR0aDowLjU7IiB3aWR0aD0iNCIgeD0iMjgzIiB5PSIzMjEuOTg0NCIvPjxyZWN0IGZpbGw9IiNGMUYxRjEiIGhlaWdodD0iMiIgc3R5bGU9InN0cm9rZTojMTgxODE4O3N0cm9rZS13aWR0aDowLjU7IiB3aWR0aD0iNCIgeD0iMjgzIiB5PSIzMjUuOTg0NCIvPjx0ZXh0IGZpbGw9IiMwMDAwMDAiIGZvbnQtZmFtaWx5PSJzYW5zLXNlcmlmIiBmb250LXNpemU9IjE0IiBsZW5ndGhBZGp1c3Q9InNwYWNpbmciIHRleHRMZW5ndGg9IjkyIiB4PSIxODgiIHk9IjM0OC4yMTg4Ij5FbWFpbCBTZXJ2aWNlPC90ZXh0PjwvZz48IS0tZW50aXR5IFBheW1lbnQgR2F0ZXdheS0tPjxnIGlkPSJlbGVtX1BheW1lbnQgR2F0ZXdheSI+PHJlY3QgZmlsbD0iI0YxRjFGMSIgaGVpZ2h0PSI0NC45ODQ0IiByeD0iMi41IiByeT0iMi41IiBzdHlsZT0ic3Ryb2tlOiMxODE4MTg7c3Ryb2tlLXdpZHRoOjAuNTsiIHdpZHRoPSIxNDciIHg9IjE1MDQuNSIgeT0iMzE0Ljk4NDQiLz48cmVjdCBmaWxsPSIjRjFGMUYxIiBoZWlnaHQ9IjEwIiBzdHlsZT0ic3Ryb2tlOiMxODE4MTg7c3Ryb2tlLXdpZHRoOjAuNTsiIHdpZHRoPSIxNSIgeD0iMTYzMS41IiB5PSIzMTkuOTg0NCIvPjxyZWN0IGZpbGw9IiNGMUYxRjEiIGhlaWdodD0iMiIgc3R5bGU9InN0cm9rZTojMTgxODE4O3N0cm9rZS13aWR0aDowLjU7IiB3aWR0aD0iNCIgeD0iMTYyOS41IiB5PSIzMjEuOTg0NCIvPjxyZWN0IGZpbGw9IiNGMUYxRjEiIGhlaWdodD0iMiIgc3R5bGU9InN0cm9rZTojMTgxODE4O3N0cm9rZS13aWR0aDowLjU7IiB3aWR0aD0iNCIgeD0iMTYyOS41IiB5PSIzMjUuOTg0NCIvPjx0ZXh0IGZpbGw9IiMwMDAwMDAiIGZvbnQtZmFtaWx5PSJzYW5zLXNlcmlmIiBmb250LXNpemU9IjE0IiBsZW5ndGhBZGp1c3Q9InNwYWNpbmciIHRleHRMZW5ndGg9IjEwNyIgeD0iMTUxOS41IiB5PSIzNDguMjE4OCI+UGF5bWVudCBHYXRld2F5PC90ZXh0PjwvZz48IS0tbGluayBVc2VyIEludGVyZmFjZSB0byBBY2NvdW50IE1hbmFnZW1lbnQtLT48ZyBpZD0ibGlua19Vc2VyIEludGVyZmFjZV9BY2NvdW50IE1hbmFnZW1lbnQiPjxwYXRoIGQ9Ik05MDMuODYsMTA4LjY3NDQgQzgzNC43NiwxMTguOTE0NCA3MjUuNDgsMTM1LjI0NDQgNjMxLDE0OS45ODQ0IEM1MTcuMTgsMTY3Ljc0NDQgMzkxLjczMTEsMTg4LjEyNDUgMzA4LjUyMTEsMjAxLjc1NDUgIiBmaWxsPSJub25lIiBpZD0iVXNlciBJbnRlcmZhY2UtdG8tQWNjb3VudCBNYW5hZ2VtZW50IiBzdHlsZT0ic3Ryb2tlOiMxODE4MTg7c3Ryb2tlLXdpZHRoOjEuMDsiLz48cG9seWdvbiBmaWxsPSIjMTgxODE4IiBwb2ludHM9IjMwMi42LDIwMi43MjQ0LDMxMi4xMjgyLDIwNS4yMTY5LDMwNy41MzQyLDIwMS45MTYxLDMxMC44MzUsMTk3LjMyMjEsMzAyLjYsMjAyLjcyNDQiIHN0eWxlPSJzdHJva2U6IzE4MTgxODtzdHJva2Utd2lkdGg6MS4wOyIvPjx0ZXh0IGZpbGw9IiMwMDAwMDAiIGZvbnQtZmFtaWx5PSJzYW5zLXNlcmlmIiBmb250LXNpemU9IjEzIiBsZW5ndGhBZGp1c3Q9InNwYWNpbmciIHRleHRMZW5ndGg9IjQyIiB4PSI2MzIiIHk9IjE2My4yNzM0Ij5BY2Nlc3M8L3RleHQ+PC9nPjwhLS1saW5rIFVzZXIgSW50ZXJmYWNlIHRvIEVtcGxveWVlIE1hbmFnZW1lbnQtLT48ZyBpZD0ibGlua19Vc2VyIEludGVyZmFjZV9FbXBsb3llZSBNYW5hZ2VtZW50Ij48cGF0aCBkPSJNMTA0Mi4yLDEwOC4xMTQ0IEMxMTU5LjA0LDEyNC41NzQ0IDE0MDIuNzYsMTU5Ljc2NDQgMTYwOCwxOTQuOTg0NCBDMTYxNy4xOSwxOTYuNTY0NCAxNjIwLjg2NSwxOTcuMTkwOSAxNjMwLjQxNSwxOTguOTEwOSAiIGZpbGw9Im5vbmUiIGlkPSJVc2VyIEludGVyZmFjZS10by1FbXBsb3llZSBNYW5hZ2VtZW50IiBzdHlsZT0ic3Ryb2tlOiMxODE4MTg7c3Ryb2tlLXdpZHRoOjEuMDsiLz48cG9seWdvbiBmaWxsPSIjMTgxODE4IiBwb2ludHM9IjE2MzYuMzIsMTk5Ljk3NDQsMTYyOC4xNzE1LDE5NC40NDI0LDE2MzEuMzk5MiwxOTkuMDg4MSwxNjI2Ljc1MzUsMjAyLjMxNTgsMTYzNi4zMiwxOTkuOTc0NCIgc3R5bGU9InN0cm9rZTojMTgxODE4O3N0cm9rZS13aWR0aDoxLjA7Ii8+PHRleHQgZmlsbD0iIzAwMDAwMCIgZm9udC1mYW1pbHk9InNhbnMtc2VyaWYiIGZvbnQtc2l6ZT0iMTMiIGxlbmd0aEFkanVzdD0ic3BhY2luZyIgdGV4dExlbmd0aD0iNDIiIHg9IjE0MTciIHk9IjE2My4yNzM0Ij5BY2Nlc3M8L3RleHQ+PC9nPjwhLS1saW5rIFVzZXIgSW50ZXJmYWNlIHRvIFBlcmZvcm1hbmNlIEV2YWx1YXRpb24tLT48ZyBpZD0ibGlua19Vc2VyIEludGVyZmFjZV9QZXJmb3JtYW5jZSBFdmFsdWF0aW9uIj48cGF0aCBkPSJNOTE1LjIzLDExOS45OTQ0IEM4NTguMDgsMTQxLjI2NDQgNzc2LjczMzEsMTcxLjU0MTQgNzE5LjUzMzEsMTkyLjgzMTQgIiBmaWxsPSJub25lIiBpZD0iVXNlciBJbnRlcmZhY2UtdG8tUGVyZm9ybWFuY2UgRXZhbHVhdGlvbiIgc3R5bGU9InN0cm9rZTojMTgxODE4O3N0cm9rZS13aWR0aDoxLjA7Ii8+PHBvbHlnb24gZmlsbD0iIzE4MTgxOCIgcG9pbnRzPSI3MTMuOTEsMTk0LjkyNDQsNzIzLjc0LDE5NS41MzM3LDcxOC41OTU5LDE5My4xODAzLDcyMC45NDk0LDE4OC4wMzYyLDcxMy45MSwxOTQuOTI0NCIgc3R5bGU9InN0cm9rZTojMTgxODE4O3N0cm9rZS13aWR0aDoxLjA7Ii8+PHRleHQgZmlsbD0iIzAwMDAwMCIgZm9udC1mYW1pbHk9InNhbnMtc2VyaWYiIGZvbnQtc2l6ZT0iMTMiIGxlbmd0aEFkanVzdD0ic3BhY2luZyIgdGV4dExlbmd0aD0iNDIiIHg9IjgzNCIgeT0iMTYzLjI3MzQiPkFjY2VzczwvdGV4dD48L2c+PCEtLWxpbmsgVXNlciBJbnRlcmZhY2UgdG8gVHJhaW5pbmcgTWFuYWdlbWVudC0tPjxnIGlkPSJsaW5rX1VzZXIgSW50ZXJmYWNlX1RyYWluaW5nIE1hbmFnZW1lbnQiPjxwYXRoIGQ9Ik05NTUuMjEsMTIwLjEyNDQgQzkzNy43MSwxNDEuNDE0NCA5MTQuOTUwMSwxNjkuMDk5NCA4OTcuNDkwMSwxOTAuMzM5NCAiIGZpbGw9Im5vbmUiIGlkPSJVc2VyIEludGVyZmFjZS10by1UcmFpbmluZyBNYW5hZ2VtZW50IiBzdHlsZT0ic3Ryb2tlOiMxODE4MTg7c3Ryb2tlLXdpZHRoOjEuMDsiLz48cG9seWdvbiBmaWxsPSIjMTgxODE4IiBwb2ludHM9Ijg5My42OCwxOTQuOTc0NCw5MDIuNDg1MiwxOTAuNTYyLDg5Ni44NTUxLDE5MS4xMTE5LDg5Ni4zMDUyLDE4NS40ODE4LDg5My42OCwxOTQuOTc0NCIgc3R5bGU9InN0cm9rZTojMTgxODE4O3N0cm9rZS13aWR0aDoxLjA7Ii8+PHRleHQgZmlsbD0iIzAwMDAwMCIgZm9udC1mYW1pbHk9InNhbnMtc2VyaWYiIGZvbnQtc2l6ZT0iMTMiIGxlbmd0aEFkanVzdD0ic3BhY2luZyIgdGV4dExlbmd0aD0iNDIiIHg9IjkzMSIgeT0iMTYzLjI3MzQiPkFjY2VzczwvdGV4dD48L2c+PCEtLWxpbmsgVXNlciBJbnRlcmZhY2UgdG8gTGVhdmUgTWFuYWdlbWVudC0tPjxnIGlkPSJsaW5rX1VzZXIgSW50ZXJmYWNlX0xlYXZlIE1hbmFnZW1lbnQiPjxwYXRoIGQ9Ik05MDMuNzcsMTEzLjgzNDQgQzgxOC40MywxMzIuNzg0NCA2NjguOTksMTY2LjA1NDQgNTQxLDE5NC45ODQ0IEM1MzUuMzcsMTk2LjI1NDQgNTM1LjM4ODUsMTk2LjIzNDcgNTI5LjUzODUsMTk3LjU3NDcgIiBmaWxsPSJub25lIiBpZD0iVXNlciBJbnRlcmZhY2UtdG8tTGVhdmUgTWFuYWdlbWVudCIgc3R5bGU9InN0cm9rZTojMTgxODE4O3N0cm9rZS13aWR0aDoxLjA7Ii8+PHBvbHlnb24gZmlsbD0iIzE4MTgxOCIgcG9pbnRzPSI1MjMuNjksMTk4LjkxNDQsNTMzLjM1NTksMjAwLjgwMzksNTI4LjU2MzgsMTk3Ljc5OCw1MzEuNTY5NywxOTMuMDA1OSw1MjMuNjksMTk4LjkxNDQiIHN0eWxlPSJzdHJva2U6IzE4MTgxODtzdHJva2Utd2lkdGg6MS4wOyIvPjx0ZXh0IGZpbGw9IiMwMDAwMDAiIGZvbnQtZmFtaWx5PSJzYW5zLXNlcmlmIiBmb250LXNpemU9IjEzIiBsZW5ndGhBZGp1c3Q9InNwYWNpbmciIHRleHRMZW5ndGg9IjQyIiB4PSI3MzEiIHk9IjE2My4yNzM0Ij5BY2Nlc3M8L3RleHQ+PC9nPjwhLS1saW5rIFVzZXIgSW50ZXJmYWNlIHRvIFBheXJvbGwgTWFuYWdlbWVudC0tPjxnIGlkPSJsaW5rX1VzZXIgSW50ZXJmYWNlX1BheXJvbGwgTWFuYWdlbWVudCI+PHBhdGggZD0iTTEwNDIuMjYsMTEzLjc5NDQgQzExNDAuMDUsMTM1LjM5NDQgMTMxMi40NzEzLDE3My40OTk4IDE0MTcuNTExMywxOTYuNzA5OCAiIGZpbGw9Im5vbmUiIGlkPSJVc2VyIEludGVyZmFjZS10by1QYXlyb2xsIE1hbmFnZW1lbnQiIHN0eWxlPSJzdHJva2U6IzE4MTgxODtzdHJva2Utd2lkdGg6MS4wOyIvPjxwb2x5Z29uIGZpbGw9IiMxODE4MTgiIHBvaW50cz0iMTQyMy4zNywxOTguMDA0NCwxNDE1LjQ0NSwxOTIuMTU2OCwxNDE4LjQ4NzgsMTk2LjkyNTYsMTQxMy43MTg5LDE5OS45NjgzLDE0MjMuMzcsMTk4LjAwNDQiIHN0eWxlPSJzdHJva2U6IzE4MTgxODtzdHJva2Utd2lkdGg6MS4wOyIvPjx0ZXh0IGZpbGw9IiMwMDAwMDAiIGZvbnQtZmFtaWx5PSJzYW5zLXNlcmlmIiBmb250LXNpemU9IjEzIiBsZW5ndGhBZGp1c3Q9InNwYWNpbmciIHRleHRMZW5ndGg9IjQyIiB4PSIxMjcyIiB5PSIxNjMuMjczNCI+QWNjZXNzPC90ZXh0PjwvZz48IS0tbGluayBVc2VyIEludGVyZmFjZSB0byBDb21wbGlhbmNlIGFuZCBSZXBvcnRpbmctLT48ZyBpZD0ibGlua19Vc2VyIEludGVyZmFjZV9Db21wbGlhbmNlIGFuZCBSZXBvcnRpbmciPjxwYXRoIGQ9Ik0xMDI5LjY4LDExOS45OTQ0IEMxMDg1Ljc0LDE0MS4yNjQ0IDExNjUuNDYwMiwxNzEuNTA1OCAxMjIxLjU3MDIsMTkyLjc5NTggIiBmaWxsPSJub25lIiBpZD0iVXNlciBJbnRlcmZhY2UtdG8tQ29tcGxpYW5jZSBhbmQgUmVwb3J0aW5nIiBzdHlsZT0ic3Ryb2tlOiMxODE4MTg7c3Ryb2tlLXdpZHRoOjEuMDsiLz48cG9seWdvbiBmaWxsPSIjMTgxODE4IiBwb2ludHM9IjEyMjcuMTgsMTk0LjkyNDQsMTIyMC4xODQ0LDE4Ny45OTE3LDEyMjIuNTA1MiwxOTMuMTUwNiwxMjE3LjM0NjMsMTk1LjQ3MTQsMTIyNy4xOCwxOTQuOTI0NCIgc3R5bGU9InN0cm9rZTojMTgxODE4O3N0cm9rZS13aWR0aDoxLjA7Ii8+PHRleHQgZmlsbD0iIzAwMDAwMCIgZm9udC1mYW1pbHk9InNhbnMtc2VyaWYiIGZvbnQtc2l6ZT0iMTMiIGxlbmd0aEFkanVzdD0ic3BhY2luZyIgdGV4dExlbmd0aD0iNDIiIHg9IjExNDgiIHk9IjE2My4yNzM0Ij5BY2Nlc3M8L3RleHQ+PC9nPjwhLS1saW5rIFVzZXIgSW50ZXJmYWNlIHRvIFBheW1lbnQgRGV0YWlscy0tPjxnIGlkPSJsaW5rX1VzZXIgSW50ZXJmYWNlX1BheW1lbnQgRGV0YWlscyI+PHBhdGggZD0iTTk5MC45NywxMjAuMTI0NCBDMTAwOC42NiwxNDEuNDE0NCAxMDMxLjY2NjYsMTY5LjExODYgMTA0OS4zMDY2LDE5MC4zNTg2ICIgZmlsbD0ibm9uZSIgaWQ9IlVzZXIgSW50ZXJmYWNlLXRvLVBheW1lbnQgRGV0YWlscyIgc3R5bGU9InN0cm9rZTojMTgxODE4O3N0cm9rZS13aWR0aDoxLjA7Ii8+PHBvbHlnb24gZmlsbD0iIzE4MTgxOCIgcG9pbnRzPSIxMDUzLjE0LDE5NC45NzQ0LDEwNTAuNDY3LDE4NS40OTUyLDEwNDkuOTQ1NSwxOTEuMTI3OSwxMDQ0LjMxMjcsMTkwLjYwNjQsMTA1My4xNCwxOTQuOTc0NCIgc3R5bGU9InN0cm9rZTojMTgxODE4O3N0cm9rZS13aWR0aDoxLjA7Ii8+PHRleHQgZmlsbD0iIzAwMDAwMCIgZm9udC1mYW1pbHk9InNhbnMtc2VyaWYiIGZvbnQtc2l6ZT0iMTMiIGxlbmd0aEFkanVzdD0ic3BhY2luZyIgdGV4dExlbmd0aD0iNDIiIHg9IjEwMjgiIHk9IjE2My4yNzM0Ij5BY2Nlc3M8L3RleHQ+PC9nPjwhLS1saW5rIEFjY291bnQgTWFuYWdlbWVudCB0byBEYXRhYmFzZS0tPjxnIGlkPSJsaW5rX0FjY291bnQgTWFuYWdlbWVudF9EYXRhYmFzZSI+PHBhdGggZD0iTTIwOS4wNCwyNDAuMDc0NCBDMjAzLjk5LDI1NC42MDQ0IDIwMC45OCwyNzMuMTk0NCAyMTIsMjg0Ljk4NDQgQzIzNi42MywzMTEuMzE0NCA3NjAuMzQyOSwzMjkuNzA2NSA5MjQuNzYyOSwzMzQuODU2NSAiIGZpbGw9Im5vbmUiIGlkPSJBY2NvdW50IE1hbmFnZW1lbnQtdG8tRGF0YWJhc2UiIHN0eWxlPSJzdHJva2U6IzE4MTgxODtzdHJva2Utd2lkdGg6MS4wOyIvPjxwb2x5Z29uIGZpbGw9IiMxODE4MTgiIHBvaW50cz0iOTMwLjc2LDMzNS4wNDQ0LDkyMS44ODk2LDMzMC43NjQ2LDkyNS43NjI1LDMzNC44ODc4LDkyMS42MzkyLDMzOC43NjA3LDkzMC43NiwzMzUuMDQ0NCIgc3R5bGU9InN0cm9rZTojMTgxODE4O3N0cm9rZS13aWR0aDoxLjA7Ii8+PHRleHQgZmlsbD0iIzAwMDAwMCIgZm9udC1mYW1pbHk9InNhbnMtc2VyaWYiIGZvbnQtc2l6ZT0iMTMiIGxlbmd0aEFkanVzdD0ic3BhY2luZyIgdGV4dExlbmd0aD0iMTI5IiB4PSIyMTMiIHk9IjI4My4yNzM0Ij5TdG9yZS9SZXRyaWV2ZSBEYXRhPC90ZXh0PjwvZz48IS0tbGluayBFbXBsb3llZSBNYW5hZ2VtZW50IHRvIERhdGFiYXNlLS0+PGcgaWQ9ImxpbmtfRW1wbG95ZWUgTWFuYWdlbWVudF9EYXRhYmFzZSI+PHBhdGggZD0iTTE3MTEuODMsMjQwLjE3NDQgQzE3MDEuOTEsMjU1LjU2NDQgMTY4Ni40LDI3NS4xNjQ0IDE2NjcsMjg0Ljk4NDQgQzE2MTAuMjYsMzEzLjY5NDQgMTE4MC4xNjY4LDMzMC4wMTkgMTAzMy4xNzY4LDMzNC44MDkgIiBmaWxsPSJub25lIiBpZD0iRW1wbG95ZWUgTWFuYWdlbWVudC10by1EYXRhYmFzZSIgc3R5bGU9InN0cm9rZTojMTgxODE4O3N0cm9rZS13aWR0aDoxLjA7Ii8+PHBvbHlnb24gZmlsbD0iIzE4MTgxOCIgcG9pbnRzPSIxMDI3LjE4LDMzNS4wMDQ0LDEwMzYuMzA1NSwzMzguNzA5MSwxMDMyLjE3NzMsMzM0Ljg0MTUsMTAzNi4wNDQ5LDMzMC43MTM0LDEwMjcuMTgsMzM1LjAwNDQiIHN0eWxlPSJzdHJva2U6IzE4MTgxODtzdHJva2Utd2lkdGg6MS4wOyIvPjx0ZXh0IGZpbGw9IiMwMDAwMDAiIGZvbnQtZmFtaWx5PSJzYW5zLXNlcmlmIiBmb250LXNpemU9IjEzIiBsZW5ndGhBZGp1c3Q9InNwYWNpbmciIHRleHRMZW5ndGg9IjEyOSIgeD0iMTY4NyIgeT0iMjgzLjI3MzQiPlN0b3JlL1JldHJpZXZlIERhdGE8L3RleHQ+PC9nPjwhLS1saW5rIFBlcmZvcm1hbmNlIEV2YWx1YXRpb24gdG8gRGF0YWJhc2UtLT48ZyBpZD0ibGlua19QZXJmb3JtYW5jZSBFdmFsdWF0aW9uX0RhdGFiYXNlIj48cGF0aCBkPSJNNjc3LjYxLDI0MC4yMjQ0IEM2OTMuNTQsMjU1LjAyNDQgNzE2LjQ1LDI3My44NzQ0IDc0MCwyODQuOTg0NCBDODAxLjk5LDMxNC4yNDQ0IDg3NC45MjYxLDMyNi40MjY4IDkyNC43MTYxLDMzMS45MTY4ICIgZmlsbD0ibm9uZSIgaWQ9IlBlcmZvcm1hbmNlIEV2YWx1YXRpb24tdG8tRGF0YWJhc2UiIHN0eWxlPSJzdHJva2U6IzE4MTgxODtzdHJva2Utd2lkdGg6MS4wOyIvPjxwb2x5Z29uIGZpbGw9IiMxODE4MTgiIHBvaW50cz0iOTMwLjY4LDMzMi41NzQ0LDkyMi4xNzI2LDMyNy42MTIxLDkyNS43MTAxLDMzMi4wMjY0LDkyMS4yOTU4LDMzNS41NjM5LDkzMC42OCwzMzIuNTc0NCIgc3R5bGU9InN0cm9rZTojMTgxODE4O3N0cm9rZS13aWR0aDoxLjA7Ii8+PHRleHQgZmlsbD0iIzAwMDAwMCIgZm9udC1mYW1pbHk9InNhbnMtc2VyaWYiIGZvbnQtc2l6ZT0iMTMiIGxlbmd0aEFkanVzdD0ic3BhY2luZyIgdGV4dExlbmd0aD0iMTI5IiB4PSI3NDEiIHk9IjI4My4yNzM0Ij5TdG9yZS9SZXRyaWV2ZSBEYXRhPC90ZXh0PjwvZz48IS0tbGluayBUcmFpbmluZyBNYW5hZ2VtZW50IHRvIERhdGFiYXNlLS0+PGcgaWQ9ImxpbmtfVHJhaW5pbmcgTWFuYWdlbWVudF9EYXRhYmFzZSI+PHBhdGggZD0iTTg3NC45NiwyNDAuMDM0NCBDODc1LjMyLDI1NC4wMDQ0IDg3Ny44NSwyNzEuOTY0NCA4ODcsMjg0Ljk4NDQgQzg5Ny43MywzMDAuMjY0NCA5MDkuMTI3NywzMDguODkyOCA5MjUuNDQ3NywzMTYuOTMyOCAiIGZpbGw9Im5vbmUiIGlkPSJUcmFpbmluZyBNYW5hZ2VtZW50LXRvLURhdGFiYXNlIiBzdHlsZT0ic3Ryb2tlOiMxODE4MTg7c3Ryb2tlLXdpZHRoOjEuMDsiLz48cG9seWdvbiBmaWxsPSIjMTgxODE4IiBwb2ludHM9IjkzMC44MywzMTkuNTg0NCw5MjQuNTI0MywzMTIuMDE4OCw5MjYuMzQ0NywzMTcuMzc0Nyw5MjAuOTg4OCwzMTkuMTk1Miw5MzAuODMsMzE5LjU4NDQiIHN0eWxlPSJzdHJva2U6IzE4MTgxODtzdHJva2Utd2lkdGg6MS4wOyIvPjx0ZXh0IGZpbGw9IiMwMDAwMDAiIGZvbnQtZmFtaWx5PSJzYW5zLXNlcmlmIiBmb250LXNpemU9IjEzIiBsZW5ndGhBZGp1c3Q9InNwYWNpbmciIHRleHRMZW5ndGg9IjEyOSIgeD0iODg4IiB5PSIyODMuMjczNCI+U3RvcmUvUmV0cmlldmUgRGF0YTwvdGV4dD48L2c+PCEtLWxpbmsgTGVhdmUgTWFuYWdlbWVudCB0byBEYXRhYmFzZS0tPjxnIGlkPSJsaW5rX0xlYXZlIE1hbmFnZW1lbnRfRGF0YWJhc2UiPjxwYXRoIGQ9Ik00ODAuMzUsMjM5Ljk4NDQgQzUwNS4zOSwyNTUuMDc0NCA1NDEuMDYsMjc0LjM3NDQgNTc1LDI4NC45ODQ0IEM2OTkuMzQsMzIzLjg1NDQgODQ3Ljk3MjcsMzMzLjI3MzUgOTI0Ljg5MjcsMzM1LjU5MzUgIiBmaWxsPSJub25lIiBpZD0iTGVhdmUgTWFuYWdlbWVudC10by1EYXRhYmFzZSIgc3R5bGU9InN0cm9rZTojMTgxODE4O3N0cm9rZS13aWR0aDoxLjA7Ii8+PHBvbHlnb24gZmlsbD0iIzE4MTgxOCIgcG9pbnRzPSI5MzAuODksMzM1Ljc3NDQsOTIyLjAxNDcsMzMxLjUwNDksOTI1Ljg5MjMsMzM1LjYyMzYsOTIxLjc3MzUsMzM5LjUwMTIsOTMwLjg5LDMzNS43NzQ0IiBzdHlsZT0ic3Ryb2tlOiMxODE4MTg7c3Ryb2tlLXdpZHRoOjEuMDsiLz48dGV4dCBmaWxsPSIjMDAwMDAwIiBmb250LWZhbWlseT0ic2Fucy1zZXJpZiIgZm9udC1zaXplPSIxMyIgbGVuZ3RoQWRqdXN0PSJzcGFjaW5nIiB0ZXh0TGVuZ3RoPSIxMjkiIHg9IjU3NiIgeT0iMjgzLjI3MzQiPlN0b3JlL1JldHJpZXZlIERhdGE8L3RleHQ+PC9nPjwhLS1saW5rIFBheXJvbGwgTWFuYWdlbWVudCB0byBEYXRhYmFzZS0tPjxnIGlkPSJsaW5rX1BheXJvbGwgTWFuYWdlbWVudF9EYXRhYmFzZSI+PHBhdGggZD0iTTE0NjIuMTQsMjQwLjAxNDQgQzE0MjkuNTIsMjU0LjgxNDQgMTM4My45MSwyNzMuNzQ0NCAxMzQyLDI4NC45ODQ0IEMxMjMxLjQ5LDMxNC42MjQ0IDExMDMuMTkyNiwzMjcuNTc4NCAxMDMzLjAwMjYsMzMyLjkyODQgIiBmaWxsPSJub25lIiBpZD0iUGF5cm9sbCBNYW5hZ2VtZW50LXRvLURhdGFiYXNlIiBzdHlsZT0ic3Ryb2tlOiMxODE4MTg7c3Ryb2tlLXdpZHRoOjEuMDsiLz48cG9seWdvbiBmaWxsPSIjMTgxODE4IiBwb2ludHM9IjEwMjcuMDIsMzMzLjM4NDQsMTAzNi4yOTgsMzM2LjY4ODgsMTAzMi4wMDU1LDMzMy4wMDQ0LDEwMzUuNjksMzI4LjcxMTksMTAyNy4wMiwzMzMuMzg0NCIgc3R5bGU9InN0cm9rZTojMTgxODE4O3N0cm9rZS13aWR0aDoxLjA7Ii8+PHRleHQgZmlsbD0iIzAwMDAwMCIgZm9udC1mYW1pbHk9InNhbnMtc2VyaWYiIGZvbnQtc2l6ZT0iMTMiIGxlbmd0aEFkanVzdD0ic3BhY2luZyIgdGV4dExlbmd0aD0iMTI5IiB4PSIxMzg5IiB5PSIyODMuMjczNCI+U3RvcmUvUmV0cmlldmUgRGF0YTwvdGV4dD48L2c+PCEtLWxpbmsgQ29tcGxpYW5jZSBhbmQgUmVwb3J0aW5nIHRvIERhdGFiYXNlLS0+PGcgaWQ9ImxpbmtfQ29tcGxpYW5jZSBhbmQgUmVwb3J0aW5nX0RhdGFiYXNlIj48cGF0aCBkPSJNMTI1My44MSwyNDAuMjE0NCBDMTIzMi42MiwyNTQuNjE0NCAxMjAzLjE1LDI3My4wMDQ0IDExNzUsMjg0Ljk4NDQgQzExMjYuNDQsMzA1LjY1NDQgMTA3My4zODIsMzE4LjYwMDQgMTAzMi44OTIsMzI2Ljc1MDQgIiBmaWxsPSJub25lIiBpZD0iQ29tcGxpYW5jZSBhbmQgUmVwb3J0aW5nLXRvLURhdGFiYXNlIiBzdHlsZT0ic3Ryb2tlOiMxODE4MTg7c3Ryb2tlLXdpZHRoOjEuMDsiLz48cG9seWdvbiBmaWxsPSIjMTgxODE4IiBwb2ludHM9IjEwMjcuMDEsMzI3LjkzNDQsMTAzNi42MjIzLDMzMC4wNzk4LDEwMzEuOTExNywzMjYuOTQ3NywxMDM1LjA0MzcsMzIyLjIzNzEsMTAyNy4wMSwzMjcuOTM0NCIgc3R5bGU9InN0cm9rZTojMTgxODE4O3N0cm9rZS13aWR0aDoxLjA7Ii8+PHRleHQgZmlsbD0iIzAwMDAwMCIgZm9udC1mYW1pbHk9InNhbnMtc2VyaWYiIGZvbnQtc2l6ZT0iMTMiIGxlbmd0aEFkanVzdD0ic3BhY2luZyIgdGV4dExlbmd0aD0iMTI5IiB4PSIxMjA0IiB5PSIyODMuMjczNCI+U3RvcmUvUmV0cmlldmUgRGF0YTwvdGV4dD48L2c+PCEtLWxpbmsgUGF5bWVudCBEZXRhaWxzIHRvIERhdGFiYXNlLS0+PGcgaWQ9ImxpbmtfUGF5bWVudCBEZXRhaWxzX0RhdGFiYXNlIj48cGF0aCBkPSJNMTA1Ny41NywyNDAuMDA0NCBDMTA0OSwyNTMuMzA0NCAxMDM3LjM5LDI3MC41MzQ0IDEwMjYsMjg0Ljk4NDQgQzEwMTcuOTgsMjk1LjE1NDQgMTAxMi41NTYsMzAxLjQ0IDEwMDQuMTc2LDMxMC40MSAiIGZpbGw9Im5vbmUiIGlkPSJQYXltZW50IERldGFpbHMtdG8tRGF0YWJhc2UiIHN0eWxlPSJzdHJva2U6IzE4MTgxODtzdHJva2Utd2lkdGg6MS4wOyIvPjxwb2x5Z29uIGZpbGw9IiMxODE4MTgiIHBvaW50cz0iMTAwMC4wOCwzMTQuNzk0NCwxMDA5LjE0NjksMzEwLjk0ODUsMTAwMy40OTMzLDMxMS4xNDA3LDEwMDMuMzAxMSwzMDUuNDg3MSwxMDAwLjA4LDMxNC43OTQ0IiBzdHlsZT0ic3Ryb2tlOiMxODE4MTg7c3Ryb2tlLXdpZHRoOjEuMDsiLz48dGV4dCBmaWxsPSIjMDAwMDAwIiBmb250LWZhbWlseT0ic2Fucy1zZXJpZiIgZm9udC1zaXplPSIxMyIgbGVuZ3RoQWRqdXN0PSJzcGFjaW5nIiB0ZXh0TGVuZ3RoPSIxMjkiIHg9IjEwMzciIHk9IjI4My4yNzM0Ij5TdG9yZS9SZXRyaWV2ZSBEYXRhPC90ZXh0PjwvZz48IS0tbGluayBBY2NvdW50IE1hbmFnZW1lbnQgdG8gRW1haWwgU2VydmljZS0tPjxnIGlkPSJsaW5rX0FjY291bnQgTWFuYWdlbWVudF9FbWFpbCBTZXJ2aWNlIj48cGF0aCBkPSJNMTM1LjMyLDIyNS4zNjQ0IEM4MS45LDIzMy4xODQ0IDI3LjI4LDI0OS44MTQ0IDU0LDI4NC45ODQ0IEM2OC41NywzMDQuMTY0NCAxMTkuNzI2LDMxNy4wMzU1IDE2Ni42NzYsMzI1LjUzNTUgIiBmaWxsPSJub25lIiBpZD0iQWNjb3VudCBNYW5hZ2VtZW50LXRvLUVtYWlsIFNlcnZpY2UiIHN0eWxlPSJzdHJva2U6IzE4MTgxODtzdHJva2Utd2lkdGg6MS4wOyIvPjxwb2x5Z29uIGZpbGw9IiMxODE4MTgiIHBvaW50cz0iMTcyLjU4LDMyNi42MDQ0LDE2NC40MzY2LDMyMS4wNjUsMTY3LjY2LDMyNS43MTM2LDE2My4wMTE0LDMyOC45MzcxLDE3Mi41OCwzMjYuNjA0NCIgc3R5bGU9InN0cm9rZTojMTgxODE4O3N0cm9rZS13aWR0aDoxLjA7Ii8+PHRleHQgZmlsbD0iIzAwMDAwMCIgZm9udC1mYW1pbHk9InNhbnMtc2VyaWYiIGZvbnQtc2l6ZT0iMTMiIGxlbmd0aEFkanVzdD0ic3BhY2luZyIgdGV4dExlbmd0aD0iMTIwIiB4PSI1NSIgeT0iMjgzLjI3MzQiPlNlbmQgTm90aWZpY2F0aW9uczwvdGV4dD48L2c+PCEtLWxpbmsgTGVhdmUgTWFuYWdlbWVudCB0byBFbWFpbCBTZXJ2aWNlLS0+PGcgaWQ9ImxpbmtfTGVhdmUgTWFuYWdlbWVudF9FbWFpbCBTZXJ2aWNlIj48cGF0aCBkPSJNNDE4LjQ1LDI0MC4yMjQ0IEMzOTkuOCwyNTMuOTM0NCAzNzQuNiwyNzEuNTI0NCAzNTEsMjg0Ljk4NDQgQzMzMS45NSwyOTUuODU0NCAzMTUuNjY4MywzMDMuODI3MiAyOTYuNDM4MywzMTIuNDE3MiAiIGZpbGw9Im5vbmUiIGlkPSJMZWF2ZSBNYW5hZ2VtZW50LXRvLUVtYWlsIFNlcnZpY2UiIHN0eWxlPSJzdHJva2U6IzE4MTgxODtzdHJva2Utd2lkdGg6MS4wOyIvPjxwb2x5Z29uIGZpbGw9IiMxODE4MTgiIHBvaW50cz0iMjkwLjk2LDMxNC44NjQ0LDMwMC44MDg4LDMxNC44NDU5LDI5NS41MjUyLDMxMi44MjUxLDI5Ny41NDYsMzA3LjU0MTUsMjkwLjk2LDMxNC44NjQ0IiBzdHlsZT0ic3Ryb2tlOiMxODE4MTg7c3Ryb2tlLXdpZHRoOjEuMDsiLz48dGV4dCBmaWxsPSIjMDAwMDAwIiBmb250LWZhbWlseT0ic2Fucy1zZXJpZiIgZm9udC1zaXplPSIxMyIgbGVuZ3RoQWRqdXN0PSJzcGFjaW5nIiB0ZXh0TGVuZ3RoPSIxMjAiIHg9IjM3MyIgeT0iMjgzLjI3MzQiPlNlbmQgTm90aWZpY2F0aW9uczwvdGV4dD48L2c+PCEtLWxpbmsgUGF5cm9sbCBNYW5hZ2VtZW50IHRvIFBheW1lbnQgR2F0ZXdheS0tPjxnIGlkPSJsaW5rX1BheXJvbGwgTWFuYWdlbWVudF9QYXltZW50IEdhdGV3YXkiPjxwYXRoIGQ9Ik0xNTIwLjY3LDI0MC4yMTQ0IEMxNTI2LjM5LDI0OS4zNjQ0IDE1MzMuMDcsMjYwLjE2NDQgMTUzOSwyNjkuOTg0NCBDMTU0Ny45OSwyODQuODc0NCAxNTU0Ljg5NDcsMjk2LjYwNzEgMTU2Mi40NzQ3LDMwOS42NDcxICIgZmlsbD0ibm9uZSIgaWQ9IlBheXJvbGwgTWFuYWdlbWVudC10by1QYXltZW50IEdhdGV3YXkiIHN0eWxlPSJzdHJva2U6IzE4MTgxODtzdHJva2Utd2lkdGg6MS4wOyIvPjxwb2x5Z29uIGZpbGw9IiMxODE4MTgiIHBvaW50cz0iMTU2NS40OSwzMTQuODM0NCwxNTY0LjQyNTIsMzA1LjA0MzIsMTU2Mi45NzcyLDMxMC41MTE2LDE1NTcuNTA4OCwzMDkuMDYzNywxNTY1LjQ5LDMxNC44MzQ0IiBzdHlsZT0ic3Ryb2tlOiMxODE4MTg7c3Ryb2tlLXdpZHRoOjEuMDsiLz48dGV4dCBmaWxsPSIjMDAwMDAwIiBmb250LWZhbWlseT0ic2Fucy1zZXJpZiIgZm9udC1zaXplPSIxMyIgbGVuZ3RoQWRqdXN0PSJzcGFjaW5nIiB0ZXh0TGVuZ3RoPSIxMTAiIHg9IjE1NDgiIHk9IjI4My4yNzM0Ij5Qcm9jZXNzIFBheW1lbnRzPC90ZXh0PjwvZz48IS0tU1JDPVtiUDlESXlHbTQ4UmxfSE4zdFhWbDdXSW5IR01MZlROSmllU25wZlFtLUlaOVJBTThfenNhTEtIanJ3STdHOUN5YXRWb1gyS2hXZmlReGo1V0l2ZUNHcER1OVdyTkxkVk1uOGJJT2tqRzVxTTd1WDFzbU1lRU1DNVIwVTRSWC1zSjltVXRYaWRqS1QwRXJraUJzNXVBT095MS02UHRTMHZYYmhtX1dMTXdLdE9Xb2tLc3VTeXdaS09HTDNzZzh4QXE5V2J6VDJZREQ2dGthTlU0Vk52RTc5bkxBWFVCV2ZHU2txRnAwWkxycmQ3OGQ3aGN3QXVhSGdkeUJzTzJ2dElEUzhjQ3AtV2ZLV3JSSHNTcmlQQ0tNZXpCNHByaEJIclZhZlRVT1RQWEVsdk5QS1J1NlFGZnpCQk9oMEdfX0lRWF90WWxUQVc1M1JiVVlnYTZYTm1GYmtMVVlqNkZGdGJ0b1ZwWV9Oc3JUT3JDaHBaNDZYamR1eGs1cG9MVmw3eTBdLS0+PC9nPjwvc3ZnPg==;imageBackground=none;" parent="1" vertex="1">
            <mxGeometry x="-3300" y="40" width="1884" height="382" as="geometry" />
          </mxCell>
        </UserObject>
      </root>
    </mxGraphModel>
  </diagram>
  <diagram id="ju-9jfxKbwN5GlmYYRVe" name="Page-2">
    <mxGraphModel dx="4834" dy="695" grid="1" gridSize="10" guides="1" tooltips="1" connect="1" arrows="1" fold="1" page="1" pageScale="1" pageWidth="850" pageHeight="1100" math="0" shadow="0">
      <root>
        <mxCell id="0" />
        <mxCell id="1" parent="0" />
        <UserObject label="" plantUmlData="{&#xa;  &quot;data&quot;: &quot;@startuml\ntitle HR Management Software Component Diagram\n\npackage \&quot;HR Management Software\&quot; {\n    [User Interface] --&gt; [Employee Management Service]\n    [User Interface] --&gt; [Leave Management Service]\n    [User Interface] --&gt; [Performance Management Service]\n    [User Interface] --&gt; [Payroll Management Service]\n    [User Interface] --&gt; [Notification Service]\n\n    [Employee Management Service] --&gt; [Document Verification Service]\n    [Leave Management Service] --&gt; [Leave Balance Verification Service]\n    [Leave Management Service] --&gt; [Leave Records Service]\n    [Performance Management Service] --&gt; [Performance Data Collection Service]\n    [Performance Management Service] --&gt; [Feedback Service]\n    [Payroll Management Service] --&gt; [Attendance Data Service]\n    [Payroll Management Service] --&gt; [Salary Calculation Service]\n    [Payroll Management Service] --&gt; [Payslip Generation Service]\n    [Notification Service] --&gt; [Email Service]\n\n    [Database] --&gt; [Employee Management Service]\n    [Database] --&gt; [Leave Management Service]\n    [Database] --&gt; [Performance Management Service]\n    [Database] --&gt; [Payroll Management Service]\n    [Database] --&gt; [Notification Service]\n\n    [Employee Management Service] --&gt; [Database]\n    [Leave Management Service] --&gt; [Database]\n    [Performance Management Service] --&gt; [Database]\n    [Payroll Management Service] --&gt; [Database]\n    [Notification Service] --&gt; [Database]\n}\n\n@enduml\n&quot;,&#xa;  &quot;format&quot;: &quot;svg&quot;&#xa;}" id="wSCXJtylqlZf7O8XCVma-1">
          <mxCell style="shape=image;noLabel=1;verticalAlign=top;aspect=fixed;imageAspect=0;image=data:image/svg+xml,PD94bWwgdmVyc2lvbj0iMS4wIiBlbmNvZGluZz0idXMtYXNjaWkiIHN0YW5kYWxvbmU9Im5vIj8+PHN2ZyB4bWxucz0iaHR0cDovL3d3dy53My5vcmcvMjAwMC9zdmciIHhtbG5zOnhsaW5rPSJodHRwOi8vd3d3LnczLm9yZy8xOTk5L3hsaW5rIiBjb250ZW50U3R5bGVUeXBlPSJ0ZXh0L2NzcyIgaGVpZ2h0PSI1NjJweCIgcHJlc2VydmVBc3BlY3RSYXRpbz0ibm9uZSIgc3R5bGU9IndpZHRoOjE5NzJweDtoZWlnaHQ6NTYycHg7YmFja2dyb3VuZDojRkZGRkZGOyIgdmVyc2lvbj0iMS4xIiB2aWV3Qm94PSIwIDAgMTk3MiA1NjIiIHdpZHRoPSIxOTcycHgiIHpvb21BbmRQYW49Im1hZ25pZnkiPjxkZWZzLz48Zz48dGV4dCBmaWxsPSIjMDAwMDAwIiBmb250LWZhbWlseT0ic2Fucy1zZXJpZiIgZm9udC1zaXplPSIxNCIgZm9udC13ZWlnaHQ9ImJvbGQiIGxlbmd0aEFkanVzdD0ic3BhY2luZyIgdGV4dExlbmd0aD0iMjg0IiB4PSI4MzciIHk9IjIzLjIzNDQiPkhSIE1hbmFnZW1lbnQgU29mdHdhcmUgQ29tcG9uZW50IERpYWdyYW08L3RleHQ+PCEtLWNsdXN0ZXIgSFIgTWFuYWdlbWVudCBTb2Z0d2FyZS0tPjxnIGlkPSJjbHVzdGVyX0hSIE1hbmFnZW1lbnQgU29mdHdhcmUiPjxwYXRoIGQ9Ik04LjUsNDEuOTg0NCBMMTY1LjUsNDEuOTg0NCBBMy43NSwzLjc1IDAgMCAxIDE2OCw0NC40ODQ0IEwxNzUsNjIuOTY4OCBMMTk2Mi41LDYyLjk2ODggQTIuNSwyLjUgMCAwIDEgMTk2NSw2NS40Njg4IEwxOTY1LDU1My40ODQ0IEEyLjUsMi41IDAgMCAxIDE5NjIuNSw1NTUuOTg0NCBMOC41LDU1NS45ODQ0IEEyLjUsMi41IDAgMCAxIDYsNTUzLjQ4NDQgTDYsNDQuNDg0NCBBMi41LDIuNSAwIDAgMSA4LjUsNDEuOTg0NCAiIGZpbGw9Im5vbmUiIHN0eWxlPSJzdHJva2U6IzAwMDAwMDtzdHJva2Utd2lkdGg6MS41OyIvPjxsaW5lIHN0eWxlPSJzdHJva2U6IzAwMDAwMDtzdHJva2Utd2lkdGg6MS41OyIgeDE9IjYiIHgyPSIxNzUiIHkxPSI2Mi45Njg4IiB5Mj0iNjIuOTY4OCIvPjx0ZXh0IGZpbGw9IiMwMDAwMDAiIGZvbnQtZmFtaWx5PSJzYW5zLXNlcmlmIiBmb250LXNpemU9IjE0IiBmb250LXdlaWdodD0iYm9sZCIgbGVuZ3RoQWRqdXN0PSJzcGFjaW5nIiB0ZXh0TGVuZ3RoPSIxNTYiIHg9IjEwIiB5PSI1Ny4yMTg4Ij5IUiBNYW5hZ2VtZW50IFNvZnR3YXJlPC90ZXh0PjwvZz48IS0tZW50aXR5IFVzZXIgSW50ZXJmYWNlLS0+PGcgaWQ9ImVsZW1fVXNlciBJbnRlcmZhY2UiPjxyZWN0IGZpbGw9IiNGMUYxRjEiIGhlaWdodD0iNDQuOTg0NCIgcng9IjIuNSIgcnk9IjIuNSIgc3R5bGU9InN0cm9rZTojMTgxODE4O3N0cm9rZS13aWR0aDowLjU7IiB3aWR0aD0iMTM4IiB4PSIxMDIzIiB5PSI3NC45ODQ0Ii8+PHJlY3QgZmlsbD0iI0YxRjFGMSIgaGVpZ2h0PSIxMCIgc3R5bGU9InN0cm9rZTojMTgxODE4O3N0cm9rZS13aWR0aDowLjU7IiB3aWR0aD0iMTUiIHg9IjExNDEiIHk9Ijc5Ljk4NDQiLz48cmVjdCBmaWxsPSIjRjFGMUYxIiBoZWlnaHQ9IjIiIHN0eWxlPSJzdHJva2U6IzE4MTgxODtzdHJva2Utd2lkdGg6MC41OyIgd2lkdGg9IjQiIHg9IjExMzkiIHk9IjgxLjk4NDQiLz48cmVjdCBmaWxsPSIjRjFGMUYxIiBoZWlnaHQ9IjIiIHN0eWxlPSJzdHJva2U6IzE4MTgxODtzdHJva2Utd2lkdGg6MC41OyIgd2lkdGg9IjQiIHg9IjExMzkiIHk9Ijg1Ljk4NDQiLz48dGV4dCBmaWxsPSIjMDAwMDAwIiBmb250LWZhbWlseT0ic2Fucy1zZXJpZiIgZm9udC1zaXplPSIxNCIgbGVuZ3RoQWRqdXN0PSJzcGFjaW5nIiB0ZXh0TGVuZ3RoPSI5OCIgeD0iMTAzOCIgeT0iMTA4LjIxODgiPlVzZXIgSW50ZXJmYWNlPC90ZXh0PjwvZz48IS0tZW50aXR5IEVtcGxveWVlIE1hbmFnZW1lbnQgU2VydmljZS0tPjxnIGlkPSJlbGVtX0VtcGxveWVlIE1hbmFnZW1lbnQgU2VydmljZSI+PHJlY3QgZmlsbD0iI0YxRjFGMSIgaGVpZ2h0PSI0NC45ODQ0IiByeD0iMi41IiByeT0iMi41IiBzdHlsZT0ic3Ryb2tlOiMxODE4MTg7c3Ryb2tlLXdpZHRoOjAuNTsiIHdpZHRoPSIyMzEiIHg9Ijk3Ni41IiB5PSIxNzkuOTg0NCIvPjxyZWN0IGZpbGw9IiNGMUYxRjEiIGhlaWdodD0iMTAiIHN0eWxlPSJzdHJva2U6IzE4MTgxODtzdHJva2Utd2lkdGg6MC41OyIgd2lkdGg9IjE1IiB4PSIxMTg3LjUiIHk9IjE4NC45ODQ0Ii8+PHJlY3QgZmlsbD0iI0YxRjFGMSIgaGVpZ2h0PSIyIiBzdHlsZT0ic3Ryb2tlOiMxODE4MTg7c3Ryb2tlLXdpZHRoOjAuNTsiIHdpZHRoPSI0IiB4PSIxMTg1LjUiIHk9IjE4Ni45ODQ0Ii8+PHJlY3QgZmlsbD0iI0YxRjFGMSIgaGVpZ2h0PSIyIiBzdHlsZT0ic3Ryb2tlOiMxODE4MTg7c3Ryb2tlLXdpZHRoOjAuNTsiIHdpZHRoPSI0IiB4PSIxMTg1LjUiIHk9IjE5MC45ODQ0Ii8+PHRleHQgZmlsbD0iIzAwMDAwMCIgZm9udC1mYW1pbHk9InNhbnMtc2VyaWYiIGZvbnQtc2l6ZT0iMTQiIGxlbmd0aEFkanVzdD0ic3BhY2luZyIgdGV4dExlbmd0aD0iMTkxIiB4PSI5OTEuNSIgeT0iMjEzLjIxODgiPkVtcGxveWVlIE1hbmFnZW1lbnQgU2VydmljZTwvdGV4dD48L2c+PCEtLWVudGl0eSBMZWF2ZSBNYW5hZ2VtZW50IFNlcnZpY2UtLT48ZyBpZD0iZWxlbV9MZWF2ZSBNYW5hZ2VtZW50IFNlcnZpY2UiPjxyZWN0IGZpbGw9IiNGMUYxRjEiIGhlaWdodD0iNDQuOTg0NCIgcng9IjIuNSIgcnk9IjIuNSIgc3R5bGU9InN0cm9rZTojMTgxODE4O3N0cm9rZS13aWR0aDowLjU7IiB3aWR0aD0iMjA5IiB4PSI1NTguNSIgeT0iMzg5Ljk4NDQiLz48cmVjdCBmaWxsPSIjRjFGMUYxIiBoZWlnaHQ9IjEwIiBzdHlsZT0ic3Ryb2tlOiMxODE4MTg7c3Ryb2tlLXdpZHRoOjAuNTsiIHdpZHRoPSIxNSIgeD0iNzQ3LjUiIHk9IjM5NC45ODQ0Ii8+PHJlY3QgZmlsbD0iI0YxRjFGMSIgaGVpZ2h0PSIyIiBzdHlsZT0ic3Ryb2tlOiMxODE4MTg7c3Ryb2tlLXdpZHRoOjAuNTsiIHdpZHRoPSI0IiB4PSI3NDUuNSIgeT0iMzk2Ljk4NDQiLz48cmVjdCBmaWxsPSIjRjFGMUYxIiBoZWlnaHQ9IjIiIHN0eWxlPSJzdHJva2U6IzE4MTgxODtzdHJva2Utd2lkdGg6MC41OyIgd2lkdGg9IjQiIHg9Ijc0NS41IiB5PSI0MDAuOTg0NCIvPjx0ZXh0IGZpbGw9IiMwMDAwMDAiIGZvbnQtZmFtaWx5PSJzYW5zLXNlcmlmIiBmb250LXNpemU9IjE0IiBsZW5ndGhBZGp1c3Q9InNwYWNpbmciIHRleHRMZW5ndGg9IjE2OSIgeD0iNTczLjUiIHk9IjQyMy4yMTg4Ij5MZWF2ZSBNYW5hZ2VtZW50IFNlcnZpY2U8L3RleHQ+PC9nPjwhLS1lbnRpdHkgUGVyZm9ybWFuY2UgTWFuYWdlbWVudCBTZXJ2aWNlLS0+PGcgaWQ9ImVsZW1fUGVyZm9ybWFuY2UgTWFuYWdlbWVudCBTZXJ2aWNlIj48cmVjdCBmaWxsPSIjRjFGMUYxIiBoZWlnaHQ9IjQ0Ljk4NDQiIHJ4PSIyLjUiIHJ5PSIyLjUiIHN0eWxlPSJzdHJva2U6IzE4MTgxODtzdHJva2Utd2lkdGg6MC41OyIgd2lkdGg9IjI1MiIgeD0iODAzIiB5PSIzODkuOTg0NCIvPjxyZWN0IGZpbGw9IiNGMUYxRjEiIGhlaWdodD0iMTAiIHN0eWxlPSJzdHJva2U6IzE4MTgxODtzdHJva2Utd2lkdGg6MC41OyIgd2lkdGg9IjE1IiB4PSIxMDM1IiB5PSIzOTQuOTg0NCIvPjxyZWN0IGZpbGw9IiNGMUYxRjEiIGhlaWdodD0iMiIgc3R5bGU9InN0cm9rZTojMTgxODE4O3N0cm9rZS13aWR0aDowLjU7IiB3aWR0aD0iNCIgeD0iMTAzMyIgeT0iMzk2Ljk4NDQiLz48cmVjdCBmaWxsPSIjRjFGMUYxIiBoZWlnaHQ9IjIiIHN0eWxlPSJzdHJva2U6IzE4MTgxODtzdHJva2Utd2lkdGg6MC41OyIgd2lkdGg9IjQiIHg9IjEwMzMiIHk9IjQwMC45ODQ0Ii8+PHRleHQgZmlsbD0iIzAwMDAwMCIgZm9udC1mYW1pbHk9InNhbnMtc2VyaWYiIGZvbnQtc2l6ZT0iMTQiIGxlbmd0aEFkanVzdD0ic3BhY2luZyIgdGV4dExlbmd0aD0iMjEyIiB4PSI4MTgiIHk9IjQyMy4yMTg4Ij5QZXJmb3JtYW5jZSBNYW5hZ2VtZW50IFNlcnZpY2U8L3RleHQ+PC9nPjwhLS1lbnRpdHkgUGF5cm9sbCBNYW5hZ2VtZW50IFNlcnZpY2UtLT48ZyBpZD0iZWxlbV9QYXlyb2xsIE1hbmFnZW1lbnQgU2VydmljZSI+PHJlY3QgZmlsbD0iI0YxRjFGMSIgaGVpZ2h0PSI0NC45ODQ0IiByeD0iMi41IiByeT0iMi41IiBzdHlsZT0ic3Ryb2tlOiMxODE4MTg7c3Ryb2tlLXdpZHRoOjAuNTsiIHdpZHRoPSIyMjMiIHg9IjEwOTAuNSIgeT0iMzg5Ljk4NDQiLz48cmVjdCBmaWxsPSIjRjFGMUYxIiBoZWlnaHQ9IjEwIiBzdHlsZT0ic3Ryb2tlOiMxODE4MTg7c3Ryb2tlLXdpZHRoOjAuNTsiIHdpZHRoPSIxNSIgeD0iMTI5My41IiB5PSIzOTQuOTg0NCIvPjxyZWN0IGZpbGw9IiNGMUYxRjEiIGhlaWdodD0iMiIgc3R5bGU9InN0cm9rZTojMTgxODE4O3N0cm9rZS13aWR0aDowLjU7IiB3aWR0aD0iNCIgeD0iMTI5MS41IiB5PSIzOTYuOTg0NCIvPjxyZWN0IGZpbGw9IiNGMUYxRjEiIGhlaWdodD0iMiIgc3R5bGU9InN0cm9rZTojMTgxODE4O3N0cm9rZS13aWR0aDowLjU7IiB3aWR0aD0iNCIgeD0iMTI5MS41IiB5PSI0MDAuOTg0NCIvPjx0ZXh0IGZpbGw9IiMwMDAwMDAiIGZvbnQtZmFtaWx5PSJzYW5zLXNlcmlmIiBmb250LXNpemU9IjE0IiBsZW5ndGhBZGp1c3Q9InNwYWNpbmciIHRleHRMZW5ndGg9IjE4MyIgeD0iMTEwNS41IiB5PSI0MjMuMjE4OCI+UGF5cm9sbCBNYW5hZ2VtZW50IFNlcnZpY2U8L3RleHQ+PC9nPjwhLS1lbnRpdHkgTm90aWZpY2F0aW9uIFNlcnZpY2UtLT48ZyBpZD0iZWxlbV9Ob3RpZmljYXRpb24gU2VydmljZSI+PHJlY3QgZmlsbD0iI0YxRjFGMSIgaGVpZ2h0PSI0NC45ODQ0IiByeD0iMi41IiByeT0iMi41IiBzdHlsZT0ic3Ryb2tlOiMxODE4MTg7c3Ryb2tlLXdpZHRoOjAuNTsiIHdpZHRoPSIxODAiIHg9IjEzNDkiIHk9IjM4OS45ODQ0Ii8+PHJlY3QgZmlsbD0iI0YxRjFGMSIgaGVpZ2h0PSIxMCIgc3R5bGU9InN0cm9rZTojMTgxODE4O3N0cm9rZS13aWR0aDowLjU7IiB3aWR0aD0iMTUiIHg9IjE1MDkiIHk9IjM5NC45ODQ0Ii8+PHJlY3QgZmlsbD0iI0YxRjFGMSIgaGVpZ2h0PSIyIiBzdHlsZT0ic3Ryb2tlOiMxODE4MTg7c3Ryb2tlLXdpZHRoOjAuNTsiIHdpZHRoPSI0IiB4PSIxNTA3IiB5PSIzOTYuOTg0NCIvPjxyZWN0IGZpbGw9IiNGMUYxRjEiIGhlaWdodD0iMiIgc3R5bGU9InN0cm9rZTojMTgxODE4O3N0cm9rZS13aWR0aDowLjU7IiB3aWR0aD0iNCIgeD0iMTUwNyIgeT0iNDAwLjk4NDQiLz48dGV4dCBmaWxsPSIjMDAwMDAwIiBmb250LWZhbWlseT0ic2Fucy1zZXJpZiIgZm9udC1zaXplPSIxNCIgbGVuZ3RoQWRqdXN0PSJzcGFjaW5nIiB0ZXh0TGVuZ3RoPSIxNDAiIHg9IjEzNjQiIHk9IjQyMy4yMTg4Ij5Ob3RpZmljYXRpb24gU2VydmljZTwvdGV4dD48L2c+PCEtLWVudGl0eSBEb2N1bWVudCBWZXJpZmljYXRpb24gU2VydmljZS0tPjxnIGlkPSJlbGVtX0RvY3VtZW50IFZlcmlmaWNhdGlvbiBTZXJ2aWNlIj48cmVjdCBmaWxsPSIjRjFGMUYxIiBoZWlnaHQ9IjQ0Ljk4NDQiIHJ4PSIyLjUiIHJ5PSIyLjUiIHN0eWxlPSJzdHJva2U6IzE4MTgxODtzdHJva2Utd2lkdGg6MC41OyIgd2lkdGg9IjI0NCIgeD0iODMzIiB5PSIyODQuOTg0NCIvPjxyZWN0IGZpbGw9IiNGMUYxRjEiIGhlaWdodD0iMTAiIHN0eWxlPSJzdHJva2U6IzE4MTgxODtzdHJva2Utd2lkdGg6MC41OyIgd2lkdGg9IjE1IiB4PSIxMDU3IiB5PSIyODkuOTg0NCIvPjxyZWN0IGZpbGw9IiNGMUYxRjEiIGhlaWdodD0iMiIgc3R5bGU9InN0cm9rZTojMTgxODE4O3N0cm9rZS13aWR0aDowLjU7IiB3aWR0aD0iNCIgeD0iMTA1NSIgeT0iMjkxLjk4NDQiLz48cmVjdCBmaWxsPSIjRjFGMUYxIiBoZWlnaHQ9IjIiIHN0eWxlPSJzdHJva2U6IzE4MTgxODtzdHJva2Utd2lkdGg6MC41OyIgd2lkdGg9IjQiIHg9IjEwNTUiIHk9IjI5NS45ODQ0Ii8+PHRleHQgZmlsbD0iIzAwMDAwMCIgZm9udC1mYW1pbHk9InNhbnMtc2VyaWYiIGZvbnQtc2l6ZT0iMTQiIGxlbmd0aEFkanVzdD0ic3BhY2luZyIgdGV4dExlbmd0aD0iMjA0IiB4PSI4NDgiIHk9IjMxOC4yMTg4Ij5Eb2N1bWVudCBWZXJpZmljYXRpb24gU2VydmljZTwvdGV4dD48L2c+PCEtLWVudGl0eSBMZWF2ZSBCYWxhbmNlIFZlcmlmaWNhdGlvbiBTZXJ2aWNlLS0+PGcgaWQ9ImVsZW1fTGVhdmUgQmFsYW5jZSBWZXJpZmljYXRpb24gU2VydmljZSI+PHJlY3QgZmlsbD0iI0YxRjFGMSIgaGVpZ2h0PSI0NC45ODQ0IiByeD0iMi41IiByeT0iMi41IiBzdHlsZT0ic3Ryb2tlOiMxODE4MTg7c3Ryb2tlLXdpZHRoOjAuNTsiIHdpZHRoPSIyNzgiIHg9IjIyIiB5PSI0OTQuOTg0NCIvPjxyZWN0IGZpbGw9IiNGMUYxRjEiIGhlaWdodD0iMTAiIHN0eWxlPSJzdHJva2U6IzE4MTgxODtzdHJva2Utd2lkdGg6MC41OyIgd2lkdGg9IjE1IiB4PSIyODAiIHk9IjQ5OS45ODQ0Ii8+PHJlY3QgZmlsbD0iI0YxRjFGMSIgaGVpZ2h0PSIyIiBzdHlsZT0ic3Ryb2tlOiMxODE4MTg7c3Ryb2tlLXdpZHRoOjAuNTsiIHdpZHRoPSI0IiB4PSIyNzgiIHk9IjUwMS45ODQ0Ii8+PHJlY3QgZmlsbD0iI0YxRjFGMSIgaGVpZ2h0PSIyIiBzdHlsZT0ic3Ryb2tlOiMxODE4MTg7c3Ryb2tlLXdpZHRoOjAuNTsiIHdpZHRoPSI0IiB4PSIyNzgiIHk9IjUwNS45ODQ0Ii8+PHRleHQgZmlsbD0iIzAwMDAwMCIgZm9udC1mYW1pbHk9InNhbnMtc2VyaWYiIGZvbnQtc2l6ZT0iMTQiIGxlbmd0aEFkanVzdD0ic3BhY2luZyIgdGV4dExlbmd0aD0iMjM4IiB4PSIzNyIgeT0iNTI4LjIxODgiPkxlYXZlIEJhbGFuY2UgVmVyaWZpY2F0aW9uIFNlcnZpY2U8L3RleHQ+PC9nPjwhLS1lbnRpdHkgTGVhdmUgUmVjb3JkcyBTZXJ2aWNlLS0+PGcgaWQ9ImVsZW1fTGVhdmUgUmVjb3JkcyBTZXJ2aWNlIj48cmVjdCBmaWxsPSIjRjFGMUYxIiBoZWlnaHQ9IjQ0Ljk4NDQiIHJ4PSIyLjUiIHJ5PSIyLjUiIHN0eWxlPSJzdHJva2U6IzE4MTgxODtzdHJva2Utd2lkdGg6MC41OyIgd2lkdGg9IjE4NyIgeD0iMzM1LjUiIHk9IjQ5NC45ODQ0Ii8+PHJlY3QgZmlsbD0iI0YxRjFGMSIgaGVpZ2h0PSIxMCIgc3R5bGU9InN0cm9rZTojMTgxODE4O3N0cm9rZS13aWR0aDowLjU7IiB3aWR0aD0iMTUiIHg9IjUwMi41IiB5PSI0OTkuOTg0NCIvPjxyZWN0IGZpbGw9IiNGMUYxRjEiIGhlaWdodD0iMiIgc3R5bGU9InN0cm9rZTojMTgxODE4O3N0cm9rZS13aWR0aDowLjU7IiB3aWR0aD0iNCIgeD0iNTAwLjUiIHk9IjUwMS45ODQ0Ii8+PHJlY3QgZmlsbD0iI0YxRjFGMSIgaGVpZ2h0PSIyIiBzdHlsZT0ic3Ryb2tlOiMxODE4MTg7c3Ryb2tlLXdpZHRoOjAuNTsiIHdpZHRoPSI0IiB4PSI1MDAuNSIgeT0iNTA1Ljk4NDQiLz48dGV4dCBmaWxsPSIjMDAwMDAwIiBmb250LWZhbWlseT0ic2Fucy1zZXJpZiIgZm9udC1zaXplPSIxNCIgbGVuZ3RoQWRqdXN0PSJzcGFjaW5nIiB0ZXh0TGVuZ3RoPSIxNDciIHg9IjM1MC41IiB5PSI1MjguMjE4OCI+TGVhdmUgUmVjb3JkcyBTZXJ2aWNlPC90ZXh0PjwvZz48IS0tZW50aXR5IFBlcmZvcm1hbmNlIERhdGEgQ29sbGVjdGlvbiBTZXJ2aWNlLS0+PGcgaWQ9ImVsZW1fUGVyZm9ybWFuY2UgRGF0YSBDb2xsZWN0aW9uIFNlcnZpY2UiPjxyZWN0IGZpbGw9IiNGMUYxRjEiIGhlaWdodD0iNDQuOTg0NCIgcng9IjIuNSIgcnk9IjIuNSIgc3R5bGU9InN0cm9rZTojMTgxODE4O3N0cm9rZS13aWR0aDowLjU7IiB3aWR0aD0iMjg2IiB4PSI1NTgiIHk9IjQ5NC45ODQ0Ii8+PHJlY3QgZmlsbD0iI0YxRjFGMSIgaGVpZ2h0PSIxMCIgc3R5bGU9InN0cm9rZTojMTgxODE4O3N0cm9rZS13aWR0aDowLjU7IiB3aWR0aD0iMTUiIHg9IjgyNCIgeT0iNDk5Ljk4NDQiLz48cmVjdCBmaWxsPSIjRjFGMUYxIiBoZWlnaHQ9IjIiIHN0eWxlPSJzdHJva2U6IzE4MTgxODtzdHJva2Utd2lkdGg6MC41OyIgd2lkdGg9IjQiIHg9IjgyMiIgeT0iNTAxLjk4NDQiLz48cmVjdCBmaWxsPSIjRjFGMUYxIiBoZWlnaHQ9IjIiIHN0eWxlPSJzdHJva2U6IzE4MTgxODtzdHJva2Utd2lkdGg6MC41OyIgd2lkdGg9IjQiIHg9IjgyMiIgeT0iNTA1Ljk4NDQiLz48dGV4dCBmaWxsPSIjMDAwMDAwIiBmb250LWZhbWlseT0ic2Fucy1zZXJpZiIgZm9udC1zaXplPSIxNCIgbGVuZ3RoQWRqdXN0PSJzcGFjaW5nIiB0ZXh0TGVuZ3RoPSIyNDYiIHg9IjU3MyIgeT0iNTI4LjIxODgiPlBlcmZvcm1hbmNlIERhdGEgQ29sbGVjdGlvbiBTZXJ2aWNlPC90ZXh0PjwvZz48IS0tZW50aXR5IEZlZWRiYWNrIFNlcnZpY2UtLT48ZyBpZD0iZWxlbV9GZWVkYmFjayBTZXJ2aWNlIj48cmVjdCBmaWxsPSIjRjFGMUYxIiBoZWlnaHQ9IjQ0Ljk4NDQiIHJ4PSIyLjUiIHJ5PSIyLjUiIHN0eWxlPSJzdHJva2U6IzE4MTgxODtzdHJva2Utd2lkdGg6MC41OyIgd2lkdGg9IjE1MiIgeD0iODc5IiB5PSI0OTQuOTg0NCIvPjxyZWN0IGZpbGw9IiNGMUYxRjEiIGhlaWdodD0iMTAiIHN0eWxlPSJzdHJva2U6IzE4MTgxODtzdHJva2Utd2lkdGg6MC41OyIgd2lkdGg9IjE1IiB4PSIxMDExIiB5PSI0OTkuOTg0NCIvPjxyZWN0IGZpbGw9IiNGMUYxRjEiIGhlaWdodD0iMiIgc3R5bGU9InN0cm9rZTojMTgxODE4O3N0cm9rZS13aWR0aDowLjU7IiB3aWR0aD0iNCIgeD0iMTAwOSIgeT0iNTAxLjk4NDQiLz48cmVjdCBmaWxsPSIjRjFGMUYxIiBoZWlnaHQ9IjIiIHN0eWxlPSJzdHJva2U6IzE4MTgxODtzdHJva2Utd2lkdGg6MC41OyIgd2lkdGg9IjQiIHg9IjEwMDkiIHk9IjUwNS45ODQ0Ii8+PHRleHQgZmlsbD0iIzAwMDAwMCIgZm9udC1mYW1pbHk9InNhbnMtc2VyaWYiIGZvbnQtc2l6ZT0iMTQiIGxlbmd0aEFkanVzdD0ic3BhY2luZyIgdGV4dExlbmd0aD0iMTEyIiB4PSI4OTQiIHk9IjUyOC4yMTg4Ij5GZWVkYmFjayBTZXJ2aWNlPC90ZXh0PjwvZz48IS0tZW50aXR5IEF0dGVuZGFuY2UgRGF0YSBTZXJ2aWNlLS0+PGcgaWQ9ImVsZW1fQXR0ZW5kYW5jZSBEYXRhIFNlcnZpY2UiPjxyZWN0IGZpbGw9IiNGMUYxRjEiIGhlaWdodD0iNDQuOTg0NCIgcng9IjIuNSIgcnk9IjIuNSIgc3R5bGU9InN0cm9rZTojMTgxODE4O3N0cm9rZS13aWR0aDowLjU7IiB3aWR0aD0iMjAxIiB4PSIxNTgwLjUiIHk9IjQ5NC45ODQ0Ii8+PHJlY3QgZmlsbD0iI0YxRjFGMSIgaGVpZ2h0PSIxMCIgc3R5bGU9InN0cm9rZTojMTgxODE4O3N0cm9rZS13aWR0aDowLjU7IiB3aWR0aD0iMTUiIHg9IjE3NjEuNSIgeT0iNDk5Ljk4NDQiLz48cmVjdCBmaWxsPSIjRjFGMUYxIiBoZWlnaHQ9IjIiIHN0eWxlPSJzdHJva2U6IzE4MTgxODtzdHJva2Utd2lkdGg6MC41OyIgd2lkdGg9IjQiIHg9IjE3NTkuNSIgeT0iNTAxLjk4NDQiLz48cmVjdCBmaWxsPSIjRjFGMUYxIiBoZWlnaHQ9IjIiIHN0eWxlPSJzdHJva2U6IzE4MTgxODtzdHJva2Utd2lkdGg6MC41OyIgd2lkdGg9IjQiIHg9IjE3NTkuNSIgeT0iNTA1Ljk4NDQiLz48dGV4dCBmaWxsPSIjMDAwMDAwIiBmb250LWZhbWlseT0ic2Fucy1zZXJpZiIgZm9udC1zaXplPSIxNCIgbGVuZ3RoQWRqdXN0PSJzcGFjaW5nIiB0ZXh0TGVuZ3RoPSIxNjEiIHg9IjE1OTUuNSIgeT0iNTI4LjIxODgiPkF0dGVuZGFuY2UgRGF0YSBTZXJ2aWNlPC90ZXh0PjwvZz48IS0tZW50aXR5IFNhbGFyeSBDYWxjdWxhdGlvbiBTZXJ2aWNlLS0+PGcgaWQ9ImVsZW1fU2FsYXJ5IENhbGN1bGF0aW9uIFNlcnZpY2UiPjxyZWN0IGZpbGw9IiNGMUYxRjEiIGhlaWdodD0iNDQuOTg0NCIgcng9IjIuNSIgcnk9IjIuNSIgc3R5bGU9InN0cm9rZTojMTgxODE4O3N0cm9rZS13aWR0aDowLjU7IiB3aWR0aD0iMjIyIiB4PSIxMDY2IiB5PSI0OTQuOTg0NCIvPjxyZWN0IGZpbGw9IiNGMUYxRjEiIGhlaWdodD0iMTAiIHN0eWxlPSJzdHJva2U6IzE4MTgxODtzdHJva2Utd2lkdGg6MC41OyIgd2lkdGg9IjE1IiB4PSIxMjY4IiB5PSI0OTkuOTg0NCIvPjxyZWN0IGZpbGw9IiNGMUYxRjEiIGhlaWdodD0iMiIgc3R5bGU9InN0cm9rZTojMTgxODE4O3N0cm9rZS13aWR0aDowLjU7IiB3aWR0aD0iNCIgeD0iMTI2NiIgeT0iNTAxLjk4NDQiLz48cmVjdCBmaWxsPSIjRjFGMUYxIiBoZWlnaHQ9IjIiIHN0eWxlPSJzdHJva2U6IzE4MTgxODtzdHJva2Utd2lkdGg6MC41OyIgd2lkdGg9IjQiIHg9IjEyNjYiIHk9IjUwNS45ODQ0Ii8+PHRleHQgZmlsbD0iIzAwMDAwMCIgZm9udC1mYW1pbHk9InNhbnMtc2VyaWYiIGZvbnQtc2l6ZT0iMTQiIGxlbmd0aEFkanVzdD0ic3BhY2luZyIgdGV4dExlbmd0aD0iMTgyIiB4PSIxMDgxIiB5PSI1MjguMjE4OCI+U2FsYXJ5IENhbGN1bGF0aW9uIFNlcnZpY2U8L3RleHQ+PC9nPjwhLS1lbnRpdHkgUGF5c2xpcCBHZW5lcmF0aW9uIFNlcnZpY2UtLT48ZyBpZD0iZWxlbV9QYXlzbGlwIEdlbmVyYXRpb24gU2VydmljZSI+PHJlY3QgZmlsbD0iI0YxRjFGMSIgaGVpZ2h0PSI0NC45ODQ0IiByeD0iMi41IiByeT0iMi41IiBzdHlsZT0ic3Ryb2tlOiMxODE4MTg7c3Ryb2tlLXdpZHRoOjAuNTsiIHdpZHRoPSIyMjIiIHg9IjEzMjMiIHk9IjQ5NC45ODQ0Ii8+PHJlY3QgZmlsbD0iI0YxRjFGMSIgaGVpZ2h0PSIxMCIgc3R5bGU9InN0cm9rZTojMTgxODE4O3N0cm9rZS13aWR0aDowLjU7IiB3aWR0aD0iMTUiIHg9IjE1MjUiIHk9IjQ5OS45ODQ0Ii8+PHJlY3QgZmlsbD0iI0YxRjFGMSIgaGVpZ2h0PSIyIiBzdHlsZT0ic3Ryb2tlOiMxODE4MTg7c3Ryb2tlLXdpZHRoOjAuNTsiIHdpZHRoPSI0IiB4PSIxNTIzIiB5PSI1MDEuOTg0NCIvPjxyZWN0IGZpbGw9IiNGMUYxRjEiIGhlaWdodD0iMiIgc3R5bGU9InN0cm9rZTojMTgxODE4O3N0cm9rZS13aWR0aDowLjU7IiB3aWR0aD0iNCIgeD0iMTUyMyIgeT0iNTA1Ljk4NDQiLz48dGV4dCBmaWxsPSIjMDAwMDAwIiBmb250LWZhbWlseT0ic2Fucy1zZXJpZiIgZm9udC1zaXplPSIxNCIgbGVuZ3RoQWRqdXN0PSJzcGFjaW5nIiB0ZXh0TGVuZ3RoPSIxODIiIHg9IjEzMzgiIHk9IjUyOC4yMTg4Ij5QYXlzbGlwIEdlbmVyYXRpb24gU2VydmljZTwvdGV4dD48L2c+PCEtLWVudGl0eSBFbWFpbCBTZXJ2aWNlLS0+PGcgaWQ9ImVsZW1fRW1haWwgU2VydmljZSI+PHJlY3QgZmlsbD0iI0YxRjFGMSIgaGVpZ2h0PSI0NC45ODQ0IiByeD0iMi41IiByeT0iMi41IiBzdHlsZT0ic3Ryb2tlOiMxODE4MTg7c3Ryb2tlLXdpZHRoOjAuNTsiIHdpZHRoPSIxMzIiIHg9IjE4MTciIHk9IjQ5NC45ODQ0Ii8+PHJlY3QgZmlsbD0iI0YxRjFGMSIgaGVpZ2h0PSIxMCIgc3R5bGU9InN0cm9rZTojMTgxODE4O3N0cm9rZS13aWR0aDowLjU7IiB3aWR0aD0iMTUiIHg9IjE5MjkiIHk9IjQ5OS45ODQ0Ii8+PHJlY3QgZmlsbD0iI0YxRjFGMSIgaGVpZ2h0PSIyIiBzdHlsZT0ic3Ryb2tlOiMxODE4MTg7c3Ryb2tlLXdpZHRoOjAuNTsiIHdpZHRoPSI0IiB4PSIxOTI3IiB5PSI1MDEuOTg0NCIvPjxyZWN0IGZpbGw9IiNGMUYxRjEiIGhlaWdodD0iMiIgc3R5bGU9InN0cm9rZTojMTgxODE4O3N0cm9rZS13aWR0aDowLjU7IiB3aWR0aD0iNCIgeD0iMTkyNyIgeT0iNTA1Ljk4NDQiLz48dGV4dCBmaWxsPSIjMDAwMDAwIiBmb250LWZhbWlseT0ic2Fucy1zZXJpZiIgZm9udC1zaXplPSIxNCIgbGVuZ3RoQWRqdXN0PSJzcGFjaW5nIiB0ZXh0TGVuZ3RoPSI5MiIgeD0iMTgzMiIgeT0iNTI4LjIxODgiPkVtYWlsIFNlcnZpY2U8L3RleHQ+PC9nPjwhLS1lbnRpdHkgRGF0YWJhc2UtLT48ZyBpZD0iZWxlbV9EYXRhYmFzZSI+PHJlY3QgZmlsbD0iI0YxRjFGMSIgaGVpZ2h0PSI0NC45ODQ0IiByeD0iMi41IiByeT0iMi41IiBzdHlsZT0ic3Ryb2tlOiMxODE4MTg7c3Ryb2tlLXdpZHRoOjAuNTsiIHdpZHRoPSI5NiIgeD0iMTExMiIgeT0iMjg0Ljk4NDQiLz48cmVjdCBmaWxsPSIjRjFGMUYxIiBoZWlnaHQ9IjEwIiBzdHlsZT0ic3Ryb2tlOiMxODE4MTg7c3Ryb2tlLXdpZHRoOjAuNTsiIHdpZHRoPSIxNSIgeD0iMTE4OCIgeT0iMjg5Ljk4NDQiLz48cmVjdCBmaWxsPSIjRjFGMUYxIiBoZWlnaHQ9IjIiIHN0eWxlPSJzdHJva2U6IzE4MTgxODtzdHJva2Utd2lkdGg6MC41OyIgd2lkdGg9IjQiIHg9IjExODYiIHk9IjI5MS45ODQ0Ii8+PHJlY3QgZmlsbD0iI0YxRjFGMSIgaGVpZ2h0PSIyIiBzdHlsZT0ic3Ryb2tlOiMxODE4MTg7c3Ryb2tlLXdpZHRoOjAuNTsiIHdpZHRoPSI0IiB4PSIxMTg2IiB5PSIyOTUuOTg0NCIvPjx0ZXh0IGZpbGw9IiMwMDAwMDAiIGZvbnQtZmFtaWx5PSJzYW5zLXNlcmlmIiBmb250LXNpemU9IjE0IiBsZW5ndGhBZGp1c3Q9InNwYWNpbmciIHRleHRMZW5ndGg9IjU2IiB4PSIxMTI3IiB5PSIzMTguMjE4OCI+RGF0YWJhc2U8L3RleHQ+PC9nPjwhLS1saW5rIFVzZXIgSW50ZXJmYWNlIHRvIEVtcGxveWVlIE1hbmFnZW1lbnQgU2VydmljZS0tPjxnIGlkPSJsaW5rX1VzZXIgSW50ZXJmYWNlX0VtcGxveWVlIE1hbmFnZW1lbnQgU2VydmljZSI+PHBhdGggZD0iTTEwOTIsMTIwLjMyNDQgQzEwOTIsMTM3LjgwNDQgMTA5MiwxNTYuMjA0NCAxMDkyLDE3My42NzQ0ICIgZmlsbD0ibm9uZSIgaWQ9IlVzZXIgSW50ZXJmYWNlLXRvLUVtcGxveWVlIE1hbmFnZW1lbnQgU2VydmljZSIgc3R5bGU9InN0cm9rZTojMTgxODE4O3N0cm9rZS13aWR0aDoxLjA7Ii8+PHBvbHlnb24gZmlsbD0iIzE4MTgxOCIgcG9pbnRzPSIxMDkyLDE3OS42NzQ0LDEwOTYsMTcwLjY3NDQsMTA5MiwxNzQuNjc0NCwxMDg4LDE3MC42NzQ0LDEwOTIsMTc5LjY3NDQiIHN0eWxlPSJzdHJva2U6IzE4MTgxODtzdHJva2Utd2lkdGg6MS4wOyIvPjwvZz48IS0tbGluayBVc2VyIEludGVyZmFjZSB0byBMZWF2ZSBNYW5hZ2VtZW50IFNlcnZpY2UtLT48ZyBpZD0ibGlua19Vc2VyIEludGVyZmFjZV9MZWF2ZSBNYW5hZ2VtZW50IFNlcnZpY2UiPjxwYXRoIGQ9Ik0xMDIzLDExMS4zNTQ0IEM5NzIuNTgsMTIzLjE3NDQgOTA0LjM0LDE0NC4zOTQ0IDg1MywxNzkuOTg0NCBDNzY4LjYsMjM4LjQ4NDQgNzA0LjM1MDEsMzM5LjMxNDEgNjc4LjAyMDEsMzg0LjcxNDEgIiBmaWxsPSJub25lIiBpZD0iVXNlciBJbnRlcmZhY2UtdG8tTGVhdmUgTWFuYWdlbWVudCBTZXJ2aWNlIiBzdHlsZT0ic3Ryb2tlOiMxODE4MTg7c3Ryb2tlLXdpZHRoOjEuMDsiLz48cG9seWdvbiBmaWxsPSIjMTgxODE4IiBwb2ludHM9IjY3NS4wMSwzODkuOTA0NCw2ODIuOTg1NCwzODQuMTI1Nyw2NzcuNTE4NCwzODUuNTc5MSw2NzYuMDY1LDM4MC4xMTIyLDY3NS4wMSwzODkuOTA0NCIgc3R5bGU9InN0cm9rZTojMTgxODE4O3N0cm9rZS13aWR0aDoxLjA7Ii8+PC9nPjwhLS1saW5rIFVzZXIgSW50ZXJmYWNlIHRvIFBlcmZvcm1hbmNlIE1hbmFnZW1lbnQgU2VydmljZS0tPjxnIGlkPSJsaW5rX1VzZXIgSW50ZXJmYWNlX1BlcmZvcm1hbmNlIE1hbmFnZW1lbnQgU2VydmljZSI+PHBhdGggZD0iTTEwMjguODEsMTIwLjAzNDQgQzk2MS42MSwxNDYuODI0NCA4NTkuMTcsMTk5LjcyNDQgODE2LDI4NC45ODQ0IEM4MDYuOTcsMzAyLjgyNDQgODA2Ljg5LDMxMi4xODQ0IDgxNiwzMjkuOTg0NCBDODI5LjYxLDM1Ni41NzQ0IDg1MS4xNTQxLDM3My41NTQzIDg3NS4yMjQxLDM4Ny4wMjQzICIgZmlsbD0ibm9uZSIgaWQ9IlVzZXIgSW50ZXJmYWNlLXRvLVBlcmZvcm1hbmNlIE1hbmFnZW1lbnQgU2VydmljZSIgc3R5bGU9InN0cm9rZTojMTgxODE4O3N0cm9rZS13aWR0aDoxLjA7Ii8+PHBvbHlnb24gZmlsbD0iIzE4MTgxOCIgcG9pbnRzPSI4ODAuNDYsMzg5Ljk1NDQsODc0LjU1OTYsMzgyLjA2ODYsODc2LjA5NjgsMzg3LjUxMjYsODcwLjY1MjgsMzg5LjA0OTgsODgwLjQ2LDM4OS45NTQ0IiBzdHlsZT0ic3Ryb2tlOiMxODE4MTg7c3Ryb2tlLXdpZHRoOjEuMDsiLz48L2c+PCEtLWxpbmsgVXNlciBJbnRlcmZhY2UgdG8gUGF5cm9sbCBNYW5hZ2VtZW50IFNlcnZpY2UtLT48ZyBpZD0ibGlua19Vc2VyIEludGVyZmFjZV9QYXlyb2xsIE1hbmFnZW1lbnQgU2VydmljZSI+PHBhdGggZD0iTTExNTMuMjQsMTIwLjA5NDQgQzExODAuMjYsMTMzLjAyNDQgMTIwOS4zOSwxNTIuNDE0NCAxMjI1LDE3OS45ODQ0IEMxMjYzLjcxLDI0OC4zNDQ0IDEyMzIuNjU3MSwzNDAuOTI4MyAxMjE0LjM4NzEsMzg0LjEyODMgIiBmaWxsPSJub25lIiBpZD0iVXNlciBJbnRlcmZhY2UtdG8tUGF5cm9sbCBNYW5hZ2VtZW50IFNlcnZpY2UiIHN0eWxlPSJzdHJva2U6IzE4MTgxODtzdHJva2Utd2lkdGg6MS4wOyIvPjxwb2x5Z29uIGZpbGw9IiMxODE4MTgiIHBvaW50cz0iMTIxMi4wNSwzODkuNjU0NCwxMjE5LjIzOTcsMzgyLjkyMzMsMTIxMy45OTc2LDM4NS4wNDkzLDEyMTEuODcxNiwzNzkuODA3MSwxMjEyLjA1LDM4OS42NTQ0IiBzdHlsZT0ic3Ryb2tlOiMxODE4MTg7c3Ryb2tlLXdpZHRoOjEuMDsiLz48L2c+PCEtLWxpbmsgVXNlciBJbnRlcmZhY2UgdG8gTm90aWZpY2F0aW9uIFNlcnZpY2UtLT48ZyBpZD0ibGlua19Vc2VyIEludGVyZmFjZV9Ob3RpZmljYXRpb24gU2VydmljZSI+PHBhdGggZD0iTTExNDEuNzQsMTIwLjA2NDQgQzExNzIuMTEsMTM0LjU1NDQgMTIxMC43OCwxNTUuNDU0NCAxMjQxLDE3OS45ODQ0IEMxMzIxLjI3LDI0NS4xNDQ0IDEzOTEuMDE5NCwzNDAuODQ0MiAxNDIxLjEwOTQsMzg0Ljc3NDIgIiBmaWxsPSJub25lIiBpZD0iVXNlciBJbnRlcmZhY2UtdG8tTm90aWZpY2F0aW9uIFNlcnZpY2UiIHN0eWxlPSJzdHJva2U6IzE4MTgxODtzdHJva2Utd2lkdGg6MS4wOyIvPjxwb2x5Z29uIGZpbGw9IiMxODE4MTgiIHBvaW50cz0iMTQyNC41LDM4OS43MjQ0LDE0MjIuNzE0MiwzODAuMDM4OCwxNDIxLjY3NDUsMzg1LjU5OTMsMTQxNi4xMTQsMzg0LjU1OTYsMTQyNC41LDM4OS43MjQ0IiBzdHlsZT0ic3Ryb2tlOiMxODE4MTg7c3Ryb2tlLXdpZHRoOjEuMDsiLz48L2c+PCEtLWxpbmsgRW1wbG95ZWUgTWFuYWdlbWVudCBTZXJ2aWNlIHRvIERvY3VtZW50IFZlcmlmaWNhdGlvbiBTZXJ2aWNlLS0+PGcgaWQ9ImxpbmtfRW1wbG95ZWUgTWFuYWdlbWVudCBTZXJ2aWNlX0RvY3VtZW50IFZlcmlmaWNhdGlvbiBTZXJ2aWNlIj48cGF0aCBkPSJNMTA2My4yOCwyMjUuMDc0NCBDMTAzOS45LDI0Mi42NTQ0IDEwMTEuODQ0OCwyNjMuNzM3NSA5ODguNDc0OCwyODEuMzE3NSAiIGZpbGw9Im5vbmUiIGlkPSJFbXBsb3llZSBNYW5hZ2VtZW50IFNlcnZpY2UtdG8tRG9jdW1lbnQgVmVyaWZpY2F0aW9uIFNlcnZpY2UiIHN0eWxlPSJzdHJva2U6IzE4MTgxODtzdHJva2Utd2lkdGg6MS4wOyIvPjxwb2x5Z29uIGZpbGw9IiMxODE4MTgiIHBvaW50cz0iOTgzLjY4LDI4NC45MjQ0LDk5My4yNzY4LDI4Mi43MTA2LDk4Ny42NzU3LDI4MS45MTg2LDk4OC40Njc2LDI3Ni4zMTc1LDk4My42OCwyODQuOTI0NCIgc3R5bGU9InN0cm9rZTojMTgxODE4O3N0cm9rZS13aWR0aDoxLjA7Ii8+PC9nPjwhLS1saW5rIExlYXZlIE1hbmFnZW1lbnQgU2VydmljZSB0byBMZWF2ZSBCYWxhbmNlIFZlcmlmaWNhdGlvbiBTZXJ2aWNlLS0+PGcgaWQ9ImxpbmtfTGVhdmUgTWFuYWdlbWVudCBTZXJ2aWNlX0xlYXZlIEJhbGFuY2UgVmVyaWZpY2F0aW9uIFNlcnZpY2UiPjxwYXRoIGQ9Ik01NTguMzgsNDM0Ljk1NDQgQzQ3Mi42LDQ1Mi41NTQ0IDM1Ny42NDc2LDQ3Ni4xMzg3IDI3MS43OTc2LDQ5My43NDg3ICIgZmlsbD0ibm9uZSIgaWQ9IkxlYXZlIE1hbmFnZW1lbnQgU2VydmljZS10by1MZWF2ZSBCYWxhbmNlIFZlcmlmaWNhdGlvbiBTZXJ2aWNlIiBzdHlsZT0ic3Ryb2tlOiMxODE4MTg7c3Ryb2tlLXdpZHRoOjEuMDsiLz48cG9seWdvbiBmaWxsPSIjMTgxODE4IiBwb2ludHM9IjI2NS45Miw0OTQuOTU0NCwyNzUuNTQwMiw0OTcuMDY0MywyNzAuODE4LDQ5My45NDk3LDI3My45MzI3LDQ4OS4yMjc1LDI2NS45Miw0OTQuOTU0NCIgc3R5bGU9InN0cm9rZTojMTgxODE4O3N0cm9rZS13aWR0aDoxLjA7Ii8+PC9nPjwhLS1saW5rIExlYXZlIE1hbmFnZW1lbnQgU2VydmljZSB0byBMZWF2ZSBSZWNvcmRzIFNlcnZpY2UtLT48ZyBpZD0ibGlua19MZWF2ZSBNYW5hZ2VtZW50IFNlcnZpY2VfTGVhdmUgUmVjb3JkcyBTZXJ2aWNlIj48cGF0aCBkPSJNNjEzLjk1LDQzNS4wNzQ0IEM1NzQuMDEsNDUyLjY1NDQgNTIzLjQwMTEsNDc0LjkyNjIgNDgzLjQ4MTEsNDkyLjUwNjIgIiBmaWxsPSJub25lIiBpZD0iTGVhdmUgTWFuYWdlbWVudCBTZXJ2aWNlLXRvLUxlYXZlIFJlY29yZHMgU2VydmljZSIgc3R5bGU9InN0cm9rZTojMTgxODE4O3N0cm9rZS13aWR0aDoxLjA7Ii8+PHBvbHlnb24gZmlsbD0iIzE4MTgxOCIgcG9pbnRzPSI0NzcuOTksNDk0LjkyNDQsNDg3LjgzODgsNDk0Ljk1NzgsNDgyLjU2NTksNDkyLjkwOTIsNDg0LjYxNDYsNDg3LjYzNjQsNDc3Ljk5LDQ5NC45MjQ0IiBzdHlsZT0ic3Ryb2tlOiMxODE4MTg7c3Ryb2tlLXdpZHRoOjEuMDsiLz48L2c+PCEtLWxpbmsgUGVyZm9ybWFuY2UgTWFuYWdlbWVudCBTZXJ2aWNlIHRvIFBlcmZvcm1hbmNlIERhdGEgQ29sbGVjdGlvbiBTZXJ2aWNlLS0+PGcgaWQ9ImxpbmtfUGVyZm9ybWFuY2UgTWFuYWdlbWVudCBTZXJ2aWNlX1BlcmZvcm1hbmNlIERhdGEgQ29sbGVjdGlvbiBTZXJ2aWNlIj48cGF0aCBkPSJNODgxLjIsNDM1LjA3NDQgQzg0Mi4yOSw0NTIuNjU0NCA3OTMuMDk3Niw0NzQuODczNCA3NTQuMTk3Niw0OTIuNDUzNCAiIGZpbGw9Im5vbmUiIGlkPSJQZXJmb3JtYW5jZSBNYW5hZ2VtZW50IFNlcnZpY2UtdG8tUGVyZm9ybWFuY2UgRGF0YSBDb2xsZWN0aW9uIFNlcnZpY2UiIHN0eWxlPSJzdHJva2U6IzE4MTgxODtzdHJva2Utd2lkdGg6MS4wOyIvPjxwb2x5Z29uIGZpbGw9IiMxODE4MTgiIHBvaW50cz0iNzQ4LjczLDQ5NC45MjQ0LDc1OC41Nzg3LDQ5NC44NjMsNzUzLjI4NjMsNDkyLjg2NTIsNzU1LjI4NDEsNDg3LjU3MjksNzQ4LjczLDQ5NC45MjQ0IiBzdHlsZT0ic3Ryb2tlOiMxODE4MTg7c3Ryb2tlLXdpZHRoOjEuMDsiLz48L2c+PCEtLWxpbmsgUGVyZm9ybWFuY2UgTWFuYWdlbWVudCBTZXJ2aWNlIHRvIEZlZWRiYWNrIFNlcnZpY2UtLT48ZyBpZD0ibGlua19QZXJmb3JtYW5jZSBNYW5hZ2VtZW50IFNlcnZpY2VfRmVlZGJhY2sgU2VydmljZSI+PHBhdGggZD0iTTkzNC41MSw0MzUuMzI0NCBDOTM4LjkzLDQ1Mi44MDQ0IDk0My42MTE1LDQ3MS4zODY5IDk0OC4wMjE1LDQ4OC44NTY5ICIgZmlsbD0ibm9uZSIgaWQ9IlBlcmZvcm1hbmNlIE1hbmFnZW1lbnQgU2VydmljZS10by1GZWVkYmFjayBTZXJ2aWNlIiBzdHlsZT0ic3Ryb2tlOiMxODE4MTg7c3Ryb2tlLXdpZHRoOjEuMDsiLz48cG9seWdvbiBmaWxsPSIjMTgxODE4IiBwb2ludHM9Ijk0OS40OSw0OTQuNjc0NCw5NTEuMTY1NSw0ODQuOTY5MSw5NDguMjY2Miw0ODkuODI2NSw5NDMuNDA4OSw0ODYuOTI3MSw5NDkuNDksNDk0LjY3NDQiIHN0eWxlPSJzdHJva2U6IzE4MTgxODtzdHJva2Utd2lkdGg6MS4wOyIvPjwvZz48IS0tbGluayBQYXlyb2xsIE1hbmFnZW1lbnQgU2VydmljZSB0byBBdHRlbmRhbmNlIERhdGEgU2VydmljZS0tPjxnIGlkPSJsaW5rX1BheXJvbGwgTWFuYWdlbWVudCBTZXJ2aWNlX0F0dGVuZGFuY2UgRGF0YSBTZXJ2aWNlIj48cGF0aCBkPSJNMTMwMi4xMiw0MzUuMDE0NCBDMTM4My45OSw0NTIuNjE0NCAxNDkzLjMxNDEsNDc2LjEyMjcgMTU3NS4xNDQxLDQ5My43MjI3ICIgZmlsbD0ibm9uZSIgaWQ9IlBheXJvbGwgTWFuYWdlbWVudCBTZXJ2aWNlLXRvLUF0dGVuZGFuY2UgRGF0YSBTZXJ2aWNlIiBzdHlsZT0ic3Ryb2tlOiMxODE4MTg7c3Ryb2tlLXdpZHRoOjEuMDsiLz48cG9seWdvbiBmaWxsPSIjMTgxODE4IiBwb2ludHM9IjE1ODEuMDEsNDk0Ljk4NDQsMTU3My4wNTIzLDQ4OS4xODE0LDE1NzYuMTIxOCw0OTMuOTMzLDE1NzEuMzcwMSw0OTcuMDAyNSwxNTgxLjAxLDQ5NC45ODQ0IiBzdHlsZT0ic3Ryb2tlOiMxODE4MTg7c3Ryb2tlLXdpZHRoOjEuMDsiLz48L2c+PCEtLWxpbmsgUGF5cm9sbCBNYW5hZ2VtZW50IFNlcnZpY2UgdG8gU2FsYXJ5IENhbGN1bGF0aW9uIFNlcnZpY2UtLT48ZyBpZD0ibGlua19QYXlyb2xsIE1hbmFnZW1lbnQgU2VydmljZV9TYWxhcnkgQ2FsY3VsYXRpb24gU2VydmljZSI+PHBhdGggZD0iTTExOTYuNyw0MzUuMzI0NCBDMTE5Mi40Niw0NTIuODA0NCAxMTg3Ljk0NTEsNDcxLjM3MzYgMTE4My43MDUxLDQ4OC44NDM2ICIgZmlsbD0ibm9uZSIgaWQ9IlBheXJvbGwgTWFuYWdlbWVudCBTZXJ2aWNlLXRvLVNhbGFyeSBDYWxjdWxhdGlvbiBTZXJ2aWNlIiBzdHlsZT0ic3Ryb2tlOiMxODE4MTg7c3Ryb2tlLXdpZHRoOjEuMDsiLz48cG9seWdvbiBmaWxsPSIjMTgxODE4IiBwb2ludHM9IjExODIuMjksNDk0LjY3NDQsMTE4OC4yOTk4LDQ4Ni44NzE3LDExODMuNDY5Myw0ODkuODE1NCwxMTgwLjUyNTUsNDg0Ljk4NDksMTE4Mi4yOSw0OTQuNjc0NCIgc3R5bGU9InN0cm9rZTojMTgxODE4O3N0cm9rZS13aWR0aDoxLjA7Ii8+PC9nPjwhLS1saW5rIFBheXJvbGwgTWFuYWdlbWVudCBTZXJ2aWNlIHRvIFBheXNsaXAgR2VuZXJhdGlvbiBTZXJ2aWNlLS0+PGcgaWQ9ImxpbmtfUGF5cm9sbCBNYW5hZ2VtZW50IFNlcnZpY2VfUGF5c2xpcCBHZW5lcmF0aW9uIFNlcnZpY2UiPjxwYXRoIGQ9Ik0xMjUwLjYzLDQzNS4wNzQ0IEMxMjkwLjIzLDQ1Mi42NTQ0IDEzNDAuMzY2Niw0NzQuOTA4OCAxMzc5Ljk0NjYsNDkyLjQ4ODggIiBmaWxsPSJub25lIiBpZD0iUGF5cm9sbCBNYW5hZ2VtZW50IFNlcnZpY2UtdG8tUGF5c2xpcCBHZW5lcmF0aW9uIFNlcnZpY2UiIHN0eWxlPSJzdHJva2U6IzE4MTgxODtzdHJva2Utd2lkdGg6MS4wOyIvPjxwb2x5Z29uIGZpbGw9IiMxODE4MTgiIHBvaW50cz0iMTM4NS40Myw0OTQuOTI0NCwxMzc4LjgyODUsNDg3LjYxNTQsMTM4MC44NjA1LDQ5Mi44OTQ4LDEzNzUuNTgxMSw0OTQuOTI2NywxMzg1LjQzLDQ5NC45MjQ0IiBzdHlsZT0ic3Ryb2tlOiMxODE4MTg7c3Ryb2tlLXdpZHRoOjEuMDsiLz48L2c+PCEtLWxpbmsgTm90aWZpY2F0aW9uIFNlcnZpY2UgdG8gRW1haWwgU2VydmljZS0tPjxnIGlkPSJsaW5rX05vdGlmaWNhdGlvbiBTZXJ2aWNlX0VtYWlsIFNlcnZpY2UiPjxwYXRoIGQ9Ik0xNTI5LjA0LDQzMy4xMzQ0IEMxNjAxLjk2LDQ0OS4yMjQ0IDE3MDcuMjcsNDcyLjg2NDQgMTc5OSw0OTQuOTg0NCBDMTgwNC43MSw0OTYuMzY0NCAxODA0LjgwODYsNDk2LjM2MTUgMTgxMC43Mzg2LDQ5Ny44NDE1ICIgZmlsbD0ibm9uZSIgaWQ9Ik5vdGlmaWNhdGlvbiBTZXJ2aWNlLXRvLUVtYWlsIFNlcnZpY2UiIHN0eWxlPSJzdHJva2U6IzE4MTgxODtzdHJva2Utd2lkdGg6MS4wOyIvPjxwb2x5Z29uIGZpbGw9IiMxODE4MTgiIHBvaW50cz0iMTgxNi41Niw0OTkuMjk0NCwxODA4Ljc5NjUsNDkzLjIzNDEsMTgxMS43MDg4LDQ5OC4wODM2LDE4MDYuODU5Miw1MDAuOTk2LDE4MTYuNTYsNDk5LjI5NDQiIHN0eWxlPSJzdHJva2U6IzE4MTgxODtzdHJva2Utd2lkdGg6MS4wOyIvPjwvZz48IS0tbGluayBEYXRhYmFzZSB0byBFbXBsb3llZSBNYW5hZ2VtZW50IFNlcnZpY2UtLT48ZyBpZD0ibGlua19EYXRhYmFzZV9FbXBsb3llZSBNYW5hZ2VtZW50IFNlcnZpY2UiPjxwYXRoIGQ9Ik0xMTU2Ljg3LDI4NC42NzQ0IEMxMTQ4LjMxLDI2Ny4yMDQ0IDExMzYuMDQzOCwyNDcuNDE5OCAxMTIxLjUyMzgsMjI5LjkzOTggIiBmaWxsPSJub25lIiBpZD0iRGF0YWJhc2UtdG8tRW1wbG95ZWUgTWFuYWdlbWVudCBTZXJ2aWNlIiBzdHlsZT0ic3Ryb2tlOiMxODE4MTg7c3Ryb2tlLXdpZHRoOjEuMDsiLz48cG9seWdvbiBmaWxsPSIjMTgxODE4IiBwb2ludHM9IjExMTcuNjksMjI1LjMyNDQsMTEyMC4zNjM4LDIzNC44MDMzLDExMjAuODg0OSwyMjkuMTcwNSwxMTI2LjUxNzcsMjI5LjY5MTYsMTExNy42OSwyMjUuMzI0NCIgc3R5bGU9InN0cm9rZTojMTgxODE4O3N0cm9rZS13aWR0aDoxLjA7Ii8+PC9nPjwhLS1saW5rIEVtcGxveWVlIE1hbmFnZW1lbnQgU2VydmljZSB0byBEYXRhYmFzZS0tPjxnIGlkPSJsaW5rX0VtcGxveWVlIE1hbmFnZW1lbnQgU2VydmljZV9EYXRhYmFzZSI+PHBhdGggZD0iTTEwOTUuNzgsMjI1LjMyNDQgQzExMDQuNTEsMjQyLjgwNDQgMTExNi44MDE2LDI2Mi41NjggMTEzMS4xNTE2LDI4MC4wMzggIiBmaWxsPSJub25lIiBpZD0iRW1wbG95ZWUgTWFuYWdlbWVudCBTZXJ2aWNlLXRvLURhdGFiYXNlIiBzdHlsZT0ic3Ryb2tlOiMxODE4MTg7c3Ryb2tlLXdpZHRoOjEuMDsiLz48cG9seWdvbiBmaWxsPSIjMTgxODE4IiBwb2ludHM9IjExMzQuOTYsMjg0LjY3NDQsMTEzMi4zMzg0LDI3NS4xODA4LDExMzEuNzg2NCwyODAuODEwNywxMTI2LjE1NjUsMjgwLjI1ODcsMTEzNC45NiwyODQuNjc0NCIgc3R5bGU9InN0cm9rZTojMTgxODE4O3N0cm9rZS13aWR0aDoxLjA7Ii8+PC9nPjwhLS1saW5rIERhdGFiYXNlIHRvIExlYXZlIE1hbmFnZW1lbnQgU2VydmljZS0tPjxnIGlkPSJsaW5rX0RhdGFiYXNlX0xlYXZlIE1hbmFnZW1lbnQgU2VydmljZSI+PHBhdGggZD0iTTExMTEuNjksMzIwLjA1NDQgQzExMDAuNDUsMzIzLjU0NDQgMTA4OC44MiwzMjcuMTg0NCAxMDc4LDMyOS45ODQ0IEMxMDQ3Ljg0LDMzNy43ODQ0IDg4Ni4zNjQ3LDM2Ny42NTUxIDc3My40NTQ3LDM4OS4wOTUxICIgZmlsbD0ibm9uZSIgaWQ9IkRhdGFiYXNlLXRvLUxlYXZlIE1hbmFnZW1lbnQgU2VydmljZSIgc3R5bGU9InN0cm9rZTojMTgxODE4O3N0cm9rZS13aWR0aDoxLjA7Ii8+PHBvbHlnb24gZmlsbD0iIzE4MTgxOCIgcG9pbnRzPSI3NjcuNTYsMzkwLjIxNDQsNzc3LjE0ODIsMzkyLjQ2NTIsNzcyLjQ3MjIsMzg5LjI4MTYsNzc1LjY1NTgsMzg0LjYwNTYsNzY3LjU2LDM5MC4yMTQ0IiBzdHlsZT0ic3Ryb2tlOiMxODE4MTg7c3Ryb2tlLXdpZHRoOjEuMDsiLz48L2c+PCEtLWxpbmsgTGVhdmUgTWFuYWdlbWVudCBTZXJ2aWNlIHRvIERhdGFiYXNlLS0+PGcgaWQ9ImxpbmtfTGVhdmUgTWFuYWdlbWVudCBTZXJ2aWNlX0RhdGFiYXNlIj48cGF0aCBkPSJNNzY3LjU5LDM5NC43MzQ0IEM4ODkuOTcsMzczLjQ4NDQgMTA3My43NDc1LDM0MC4wMzI2IDExMDYuOTA3NSwzMzEuNTQyNiAiIGZpbGw9Im5vbmUiIGlkPSJMZWF2ZSBNYW5hZ2VtZW50IFNlcnZpY2UtdG8tRGF0YWJhc2UiIHN0eWxlPSJzdHJva2U6IzE4MTgxODtzdHJva2Utd2lkdGg6MS4wOyIvPjxwb2x5Z29uIGZpbGw9IiMxODE4MTgiIHBvaW50cz0iMTExMi43MiwzMzAuMDU0NCwxMTAzLjAwOTEsMzI4LjQxMTYsMTEwNy44NzYyLDMzMS4yOTQ1LDExMDQuOTkzNCwzMzYuMTYxNywxMTEyLjcyLDMzMC4wNTQ0IiBzdHlsZT0ic3Ryb2tlOiMxODE4MTg7c3Ryb2tlLXdpZHRoOjEuMDsiLz48L2c+PCEtLWxpbmsgRGF0YWJhc2UgdG8gUGVyZm9ybWFuY2UgTWFuYWdlbWVudCBTZXJ2aWNlLS0+PGcgaWQ9ImxpbmtfRGF0YWJhc2VfUGVyZm9ybWFuY2UgTWFuYWdlbWVudCBTZXJ2aWNlIj48cGF0aCBkPSJNMTExMS44MSwzMjUuNjA0NCBDMTA2OC42NCwzNDMuMjI0NCAxMDEyLjEwNzUsMzY4LjEyNDYgOTcyLjMzNzUsMzg3LjI0NDYgIiBmaWxsPSJub25lIiBpZD0iRGF0YWJhc2UtdG8tUGVyZm9ybWFuY2UgTWFuYWdlbWVudCBTZXJ2aWNlIiBzdHlsZT0ic3Ryb2tlOiMxODE4MTg7c3Ryb2tlLXdpZHRoOjEuMDsiLz48cG9seWdvbiBmaWxsPSIjMTgxODE4IiBwb2ludHM9Ijk2Ni45MywzODkuODQ0NCw5NzYuNzc0NSwzODkuNTQ5OCw5NzEuNDM2MywzODcuNjc3OSw5NzMuMzA4MSwzODIuMzM5Nyw5NjYuOTMsMzg5Ljg0NDQiIHN0eWxlPSJzdHJva2U6IzE4MTgxODtzdHJva2Utd2lkdGg6MS4wOyIvPjwvZz48IS0tbGluayBQZXJmb3JtYW5jZSBNYW5hZ2VtZW50IFNlcnZpY2UgdG8gRGF0YWJhc2UtLT48ZyBpZD0ibGlua19QZXJmb3JtYW5jZSBNYW5hZ2VtZW50IFNlcnZpY2VfRGF0YWJhc2UiPjxwYXRoIGQ9Ik05ODguNTksMzg5LjkyNDQgQzEwMzEuMDMsMzcyLjM0NDQgMTA4MS4wMDc0LDM1MC4yNjQ0IDExMTcuMzk3NCwzMzIuNjg0NCAiIGZpbGw9Im5vbmUiIGlkPSJQZXJmb3JtYW5jZSBNYW5hZ2VtZW50IFNlcnZpY2UtdG8tRGF0YWJhc2UiIHN0eWxlPSJzdHJva2U6IzE4MTgxODtzdHJva2Utd2lkdGg6MS4wOyIvPjxwb2x5Z29uIGZpbGw9IiMxODE4MTgiIHBvaW50cz0iMTEyMi44LDMzMC4wNzQ0LDExMTIuOTU2MSwzMzAuMzg3NiwxMTE4LjI5NzgsMzMyLjI0OTQsMTExNi40MzYxLDMzNy41OTExLDExMjIuOCwzMzAuMDc0NCIgc3R5bGU9InN0cm9rZTojMTgxODE4O3N0cm9rZS13aWR0aDoxLjA7Ii8+PC9nPjwhLS1saW5rIERhdGFiYXNlIHRvIFBheXJvbGwgTWFuYWdlbWVudCBTZXJ2aWNlLS0+PGcgaWQ9ImxpbmtfRGF0YWJhc2VfUGF5cm9sbCBNYW5hZ2VtZW50IFNlcnZpY2UiPjxwYXRoIGQ9Ik0xMTU4LjI2LDMzMC4zMjQ0IEMxMTYyLjU4LDM0Ny44MDQ0IDExNjkuNTYyOCwzNjYuOTg5NCAxMTc5LjUwMjgsMzg0LjQ1OTQgIiBmaWxsPSJub25lIiBpZD0iRGF0YWJhc2UtdG8tUGF5cm9sbCBNYW5hZ2VtZW50IFNlcnZpY2UiIHN0eWxlPSJzdHJva2U6IzE4MTgxODtzdHJva2Utd2lkdGg6MS4wOyIvPjxwb2x5Z29uIGZpbGw9IiMxODE4MTgiIHBvaW50cz0iMTE4Mi40NywzODkuNjc0NCwxMTgxLjQ5NTksMzc5Ljg3MzgsMTE3OS45OTczLDM4NS4zMjg2LDExNzQuNTQyNiwzODMuODMwMSwxMTgyLjQ3LDM4OS42NzQ0IiBzdHlsZT0ic3Ryb2tlOiMxODE4MTg7c3Ryb2tlLXdpZHRoOjEuMDsiLz48L2c+PCEtLWxpbmsgUGF5cm9sbCBNYW5hZ2VtZW50IFNlcnZpY2UgdG8gRGF0YWJhc2UtLT48ZyBpZD0ibGlua19QYXlyb2xsIE1hbmFnZW1lbnQgU2VydmljZV9EYXRhYmFzZSI+PHBhdGggZD0iTTEyMDQuMzcsMzg5LjY3NDQgQzEyMDAuMjIsMzcyLjIwNDQgMTE5My4yODE4LDM1Mi45OTk1IDExODMuMTgxOCwzMzUuNTE5NSAiIGZpbGw9Im5vbmUiIGlkPSJQYXlyb2xsIE1hbmFnZW1lbnQgU2VydmljZS10by1EYXRhYmFzZSIgc3R5bGU9InN0cm9rZTojMTgxODE4O3N0cm9rZS13aWR0aDoxLjA7Ii8+PHBvbHlnb24gZmlsbD0iIzE4MTgxOCIgcG9pbnRzPSIxMTgwLjE4LDMzMC4zMjQ0LDExODEuMjE5MiwzNDAuMTE4MywxMTgyLjY4MTUsMzM0LjY1MzcsMTE4OC4xNDYxLDMzNi4xMTU5LDExODAuMTgsMzMwLjMyNDQiIHN0eWxlPSJzdHJva2U6IzE4MTgxODtzdHJva2Utd2lkdGg6MS4wOyIvPjwvZz48IS0tbGluayBEYXRhYmFzZSB0byBOb3RpZmljYXRpb24gU2VydmljZS0tPjxnIGlkPSJsaW5rX0RhdGFiYXNlX05vdGlmaWNhdGlvbiBTZXJ2aWNlIj48cGF0aCBkPSJNMTIwNy44OCwzMzAuMDc0NCBDMTI1Mi42NCwzNDcuNjU0NCAxMzEzLjg2NCwzNzAuMzcwNCAxMzY0LjMyNCwzODcuOTUwNCAiIGZpbGw9Im5vbmUiIGlkPSJEYXRhYmFzZS10by1Ob3RpZmljYXRpb24gU2VydmljZSIgc3R5bGU9InN0cm9rZTojMTgxODE4O3N0cm9rZS13aWR0aDoxLjA7Ii8+PHBvbHlnb24gZmlsbD0iIzE4MTgxOCIgcG9pbnRzPSIxMzY5Ljk5LDM4OS45MjQ0LDEzNjIuODA3LDM4My4xODYxLDEzNjUuMjY4MywzODguMjc5NCwxMzYwLjE3NSwzOTAuNzQwNywxMzY5Ljk5LDM4OS45MjQ0IiBzdHlsZT0ic3Ryb2tlOiMxODE4MTg7c3Ryb2tlLXdpZHRoOjEuMDsiLz48L2c+PCEtLWxpbmsgTm90aWZpY2F0aW9uIFNlcnZpY2UgdG8gRGF0YWJhc2UtLT48ZyBpZD0ibGlua19Ob3RpZmljYXRpb24gU2VydmljZV9EYXRhYmFzZSI+PHBhdGggZD0iTTEzOTEuNzMsMzg5Ljg4NDQgQzEzNDAuNDgsMzY5LjY4NDQgMTI2NS40NjYsMzQxLjk5OTkgMTIxMy44NDYsMzI0LjYwOTkgIiBmaWxsPSJub25lIiBpZD0iTm90aWZpY2F0aW9uIFNlcnZpY2UtdG8tRGF0YWJhc2UiIHN0eWxlPSJzdHJva2U6IzE4MTgxODtzdHJva2Utd2lkdGg6MS4wOyIvPjxwb2x5Z29uIGZpbGw9IiMxODE4MTgiIHBvaW50cz0iMTIwOC4xNiwzMjIuNjk0NCwxMjE1LjQxMiwzMjkuMzU4MywxMjEyLjg5ODMsMzI0LjI5MDcsMTIxNy45NjYsMzIxLjc3NywxMjA4LjE2LDMyMi42OTQ0IiBzdHlsZT0ic3Ryb2tlOiMxODE4MTg7c3Ryb2tlLXdpZHRoOjEuMDsiLz48L2c+PCEtLVNSQz1bZlBGRFFpQ200OEpsVmVlYnp4bjJlT3R4MXNxZjJVcWJ6QjJIcnE1YUJQY3JhYzlBdHhzQUpOMmhBbHVYbGJkQ0RzWDdpcXV4OWRYT21aQ1F0NTkxbmk3QXZrdUpYTTFYWXpBUXVyNmdTSWpPOTRjOVFrVHJDOGlaQ19YQW03X2hqdWU0N2VxWm9MN0gxeXBkTHgyLUJLZ3NEVDRWYWtJV2xRODdVbzh5SjZMVV9QLUwwZXNRSjY4amJkYVl6TUFUcGhMMmZ3dGZ6MnRHRHRQQmZyUmpjLUR0YWVYRHV0OHNYVHlYdEkwdDhyX2dpb0hiOVFpMlQyM0tfeWNkd0QydFk5Ykt2MlFaeEV3OGllcWxOU1lVVndNTWt0UUVKRFJUT1lBLXlhNUEzR2phalVUT1o4Q0VOYjJuQms2VTM0ZEM4TGdQcXdBV3ZoMTZucDRzTThyVmZXME9NQUQwRk1nMUdjUGVUR0J6WEtqcENYbEx3cTB6Z2RpWENfSmFXUnhkV0psYnpteTBdLS0+PC9nPjwvc3ZnPg==;" vertex="1" parent="1">
            <mxGeometry x="-3320" y="460" width="1972" height="562" as="geometry" />
          </mxCell>
        </UserObject>
      </root>
    </mxGraphModel>
  </diagram>
</mxfile>
